<?xml version="1.0" encoding="utf-8"?>
<!-- Generator: Adobe Illustrator 24.0.1, SVG Export Plug-In . SVG Version: 6.00 Build 0)  -->
<svg version="1.1" id="Layer_1" xmlns="http://www.w3.org/2000/svg" xmlns:xlink="http://www.w3.org/1999/xlink" x="0px" y="0px"
	 viewBox="0 0 128 128" style="enable-background:new 0 0 128 128;" xml:space="preserve">
<path d="M14,100.14h99.22v2.07H14V100.14z M20.74,54.54L67.11,27.6l-1.04-1.81L18.66,53.25V93.4H14v2.07h6.74V54.54z M27.21,54.28
	l-2.85,3.63v37.56h38.86l4.4-3.89V35.11l-3.37-1.81L27.21,54.28z M28.25,56.1l15.8-8.81v29.79H26.18V58.69L28.25,56.1z M62.7,93.4
	H26.44V77.86h39.12v13.21L62.7,93.4z M65.55,76.82H45.35V46.25l18.91-10.62l1.3,0.78V76.82z M112.19,34.6v15.8H93.27V34.6h-1.04
	v15.8H73.59V30.45l3.11-1.81l-0.78-1.55l-4.66,2.33v62.44l3.89,3.63h34.97l3.89-3.63V34.6C114,34.6,112.19,34.6,112.19,34.6z
	 M112.19,51.69v19.69H93.27V51.69H112.19z M92.24,51.69v19.69H73.59V51.69H92.24z M73.59,91.07V72.42h18.65V93.4H76.18L73.59,91.07z
	 M109.6,93.4H93.53V72.42h18.91v18.65L109.6,93.4z"/>
</svg>
