<?xml version="1.0" encoding="utf-8"?>
<!-- Generator: Adobe Illustrator 24.0.1, SVG Export Plug-In . SVG Version: 6.00 Build 0)  -->
<svg version="1.1" id="Layer_1" xmlns="http://www.w3.org/2000/svg" xmlns:xlink="http://www.w3.org/1999/xlink" x="0px" y="0px"
	 viewBox="0 0 128 128" style="enable-background:new 0 0 128 128;" xml:space="preserve">
<path d="M81.23,33.42l4.34-14.72c0.48-1.93-0.48-4.1-2.41-4.58h-0.24c-1.93-0.48-4.1,0.48-4.58,2.41l-5.07,17.13L81.23,33.42
	L81.23,33.42L81.23,33.42z M94.5,69.61c-4.82-7.24-7.48-12.06-5.31-16.65c0.72-1.45,1.69-2.41,2.41-3.38
	c3.14-3.38,4.82-3.86,4.82-3.86v-7.24H76.16H65.31c-0.48,6.03-2.65,11.58-4.82,11.58s-2.17-6.27-4.58-6.03
	c-1.93,0.24-1.69,10.13-4.1,10.13c-2.17,0-1.69-9.17-3.86-9.65c-1.93-0.48-0.96,4.34-3.38,4.1c-1.45-0.24-2.17-6.03-2.65-10.13
	h-9.65v7.24c0,0,1.93,0.48,4.82,3.86c0.72,0.72,1.69,1.69,2.41,3.38c2.17,4.58-0.48,9.41-5.31,16.65c-3.62,5.55-8.2,12.3-7.48,20.26
	c1.21,14.96,15.44,22.19,26.78,24.12h20.75c11.58-1.93,25.81-9.17,26.78-24.12C102.7,81.91,98.11,75.16,94.5,69.61z M80.26,95.91
	c-1.21,0.96-2.65,2.17-2.65,4.1v3.86c0,1.69-1.45,3.38-3.14,3.38h-2.65c-0.96,0-1.45-0.72-1.45-1.45v-4.82
	c0-1.21-0.72-1.21-1.21-1.21s-1.21,0.24-1.21,1.21s0,4.1,0,5.07c0,0.97-0.24,1.21-1.21,1.21h-0.24c0,0-2.17,0-3.38,0h-0.24
	c-0.96,0-1.21-0.24-1.21-1.21s0-4.1,0-5.07c0-0.96-0.48-1.45-1.21-1.45s-1.21,0-1.21,1.21v4.82c0,0.72-0.48,1.45-1.45,1.45h-2.41
	c-1.45,0-3.14-1.45-3.14-3.38v-3.86c0-1.69-1.45-2.89-2.65-4.1c-1.21-0.96-7.24-4.58-7.24-13.03c0-11.34,10.37-20.51,22.92-20.51
	c12.3,0,22.92,9.17,22.92,20.51C87.5,91.56,81.71,94.94,80.26,95.91z M65.55,90.36l1.45,2.41c0.48,0.72,0,1.69-0.96,1.69h-3.14
	c-0.96,0-1.45-0.96-0.96-1.69l1.45-2.41C64.1,89.39,65.06,89.39,65.55,90.36z M72.75,74.77c2.92-0.92,6.27,1.42,7.47,5.23
	s-0.19,7.65-3.11,8.57c-2.92,0.92-6.27-1.42-7.47-5.23S69.83,75.7,72.75,74.77z M48.44,79.94c1.21-3.81,4.55-6.15,7.47-5.23
	c2.92,0.92,4.31,4.76,3.11,8.57c-1.21,3.81-4.55,6.15-7.47,5.23S47.24,83.75,48.44,79.94z"/>
</svg>
