<?xml version="1.0" encoding="utf-8"?>
<!-- Generator: Adobe Illustrator 24.0.1, SVG Export Plug-In . SVG Version: 6.00 Build 0)  -->
<svg version="1.1" id="Layer_1" xmlns="http://www.w3.org/2000/svg" xmlns:xlink="http://www.w3.org/1999/xlink" x="0px" y="0px"
	 viewBox="0 0 128 128" style="enable-background:new 0 0 128 128;" xml:space="preserve">
<path d="M88.47,83.79H39.53c-0.91,0-1.81,0.91-1.81,1.81v0.91c0,0.91,0.91,1.81,1.81,1.81h49.55c0.91,0,1.81-0.91,1.81-1.81V85.6
	C90.86,84.13,89.38,83.79,88.47,83.79z M35,96.78c1.21-2.42-4.53-6.04-6.34-8.46c-4.53-6.34-2.11-20.54,9.37-20.54V55.69
	c0,0-9.67,0.3-16.31,7.85c-6.65,7.55-8.16,22.96,1.21,31.42C29.56,101.01,34.09,99.5,35,96.78z M93,26.69
	c-1.21,2.42,4.53,6.04,6.34,8.46c4.53,6.34,2.11,20.54-9.37,20.54v12.08c0,0,9.67-0.3,16.31-7.85c6.65-7.55,8.16-22.96-1.21-31.42
	C98.44,22.46,93.91,24.27,93,26.69z M64,14c-12.99,0-23.26,12.99-23.26,29v39.27h46.22V43C87.26,26.99,76.69,14,64,14z M51.61,40.59
	c-1.51,0-2.42-1.81-2.11-3.93c0.3-1.81,1.51-3.32,2.72-3.32c1.51,0,2.42,1.81,2.11,3.93C54.33,39.38,52.82,40.59,51.61,40.59z
	 M64,65.66c-2.11,0-3.93-1.81-3.93-4.53c0-2.72,1.51-4.53,3.93-4.53c2.42,0,3.63,1.81,3.63,4.53C67.63,63.85,66.11,65.66,64,65.66z
	 M76.08,40.59c-1.51,0-2.72-1.21-2.72-3.32c-0.3-1.81,0.91-3.93,2.11-3.93c1.51,0,2.72,1.21,2.72,3.32
	C78.2,38.77,77.9,40.59,76.08,40.59z M40.74,90.13h46.22V114H40.74V90.13z"/>
</svg>
