<?xml version="1.0" encoding="utf-8"?>
<!-- Generator: Adobe Illustrator 24.0.1, SVG Export Plug-In . SVG Version: 6.00 Build 0)  -->
<svg version="1.1" id="Layer_1" xmlns="http://www.w3.org/2000/svg" xmlns:xlink="http://www.w3.org/1999/xlink" x="0px" y="0px"
	 viewBox="0 0 128 128" style="enable-background:new 0 0 128 128;" xml:space="preserve">
<path d="M80.59,39.24l-4.98,4.27l5.21,3.32l-13.74,8.29l7.82-8.29l-5.21-1.9l7.35-8.53L63.76,23.12l-17.3,17.3V28.34H35.8v22.75
	L14,72.89l7.58,7.58l10.43-10.43v22.04l8.06-5.21l-4.03-3.55L53.1,71.23L41.49,83.08l3.79,3.55L32.25,98.72v6.16h63.51v-3.79
	l-5.92-2.61l4.03-2.13l-8.53-6.4l10.66,2.13V69.57L106.42,80l7.58-7.58L80.59,39.24z M72.29,84.97h-9.95V68.38h9.95V84.97z
	 M86.04,76.68l-2.37-1.42l0.95,3.55l-5.92-1.42l3.79,5.21l-4.27,0.47l1.9,2.13h-3.79V68.62h9.95L86.04,76.68L86.04,76.68z"/>
</svg>
