<?xml version="1.0" encoding="utf-8"?>
<!-- Generator: Adobe Illustrator 24.0.1, SVG Export Plug-In . SVG Version: 6.00 Build 0)  -->
<svg version="1.1" id="Layer_1" xmlns="http://www.w3.org/2000/svg" xmlns:xlink="http://www.w3.org/1999/xlink" x="0px" y="0px"
	 viewBox="0 0 128 128" style="enable-background:new 0 0 128 128;" xml:space="preserve">
<path d="M97.21,76.56H86.42V52.1h6.95c0.72,0,1.2-0.72,0.72-1.2L67.48,29.08c-0.24-0.24-0.72-0.24-0.96,0L39.66,51.14
	c-0.48,0.48-0.24,1.2,0.48,1.2h6.47v24.22H44.7L28.39,59.05H14V99.1h100L97.21,76.56z M61.48,56.66v7.43h-5.28h-0.45h-1.95v-7.43
	h1.95h0.45H61.48z M73.95,59.05h10.07v17.51H73.95V59.05z M18.8,64.09h7.91L43.02,81.6h51.56l10.07,12.47H19.04L18.8,64.09
	L18.8,64.09z"/>
</svg>
