<?xml version="1.0" encoding="utf-8"?>
<!-- Generator: Adobe Illustrator 24.0.1, SVG Export Plug-In . SVG Version: 6.00 Build 0)  -->
<svg version="1.1" id="Layer_1" xmlns="http://www.w3.org/2000/svg" xmlns:xlink="http://www.w3.org/1999/xlink" x="0px" y="0px"
	 viewBox="0 0 128 128" style="enable-background:new 0 0 128 128;" xml:space="preserve">
<path d="M57.91,71.66c-14.06,0-28.13,0-42.19,0c-1.72,0-1.72,0-1.72-1.72c0-1.43,0-2.87,0-4.59c0-0.86,0.29-1.15,1.15-1.15
	c0.29,0,0.86,0,1.15,0c27.55,0,54.82,0,82.08,0c3.16,0,6.03-1.15,7.46-4.59c1.15-2.58,0.86-5.17-0.86-7.46
	c-2.01-2.3-4.59-3.16-7.75-2.3c-2.58,0.86-4.88,2.58-5.17,5.74c-0.29,1.15-0.57,1.43-1.72,1.43c-1.43,0-2.87,0-4.59,0
	s-1.43-0.29-1.43-1.72c0.57-4.88,2.87-8.32,6.89-10.91c9.18-6.03,21.24-0.29,22.67,10.33c1.15,8.61-5.74,16.65-14.35,16.65
	C85.75,71.66,71.97,71.66,57.91,71.66z M44.71,56.73c-7.17,0-14.64,0-21.81,0c-1.43,0-1.43,0-1.43-1.43c0-1.43,0-2.87,0-4.59
	c0-1.15,0.29-1.43,1.43-1.43c4.59,0,8.9,0,13.78,0c9.47,0,19.52,0,28.99,0c4.02,0,6.89-2.3,7.46-6.31c0.57-2.58-0.86-5.74-3.44-7.17
	c-2.58-1.43-6.03-1.15-8.32,0.57c-1.43,1.15-2.3,2.58-2.58,4.59c0,0.86-0.57,1.15-1.43,1.15c-1.43,0-2.87,0-4.59,0
	c-1.15,0-1.43-0.29-1.43-1.43c0.57-5.45,3.16-9.47,8.04-12.05c9.18-4.59,19.52,0.86,21.24,11.19c1.43,8.61-5.45,16.93-14.35,16.93
	C59.06,56.73,51.88,56.73,44.71,56.73z M63.36,78.83c8.32,0,16.36,0,24.68,0c5.74,0,10.91,4.59,11.19,9.76
	c0.57,6.31-3.73,11.48-9.47,12.34c-6.03,0.86-11.77-3.73-12.63-9.47c-0.29-1.43,0-1.72,1.43-1.72c1.43,0,2.87,0,4.59,0
	c0.86,0,1.43,0.29,1.72,1.15c0.57,1.43,2.01,2.58,3.44,2.3c1.72,0,2.87-1.15,3.16-2.87c0.57-2.01-1.15-4.3-3.16-4.3
	c-0.57,0-0.86,0-1.43,0c-16.07,0-32.72,0-48.79,0c-1.72,0-1.72,0-1.72-1.72c0-1.15,0-2.3,0-3.44c0-2.01,0-2.01,1.72-2.01
	C46.43,78.83,54.75,78.83,63.36,78.83z"/>
</svg>
