<?xml version="1.0" encoding="utf-8"?>
<!-- Generator: Adobe Illustrator 24.0.1, SVG Export Plug-In . SVG Version: 6.00 Build 0)  -->
<svg version="1.1" id="Layer_1" xmlns="http://www.w3.org/2000/svg" xmlns:xlink="http://www.w3.org/1999/xlink" x="0px" y="0px"
	 viewBox="0 0 128 128" style="enable-background:new 0 0 128 128;" xml:space="preserve">
<path d="M113.18,73.14c-0.25-11.68-9.14-20.56-20.56-21.57c0-0.25,0-0.25,0-0.51v-2.79l0,0c0.76-0.25,1.27-0.76,2.03-1.27
	c1.27-1.02,2.03-2.54,2.03-4.57c0-0.25,0-0.51,0-0.76l-1.02-7.87c-0.25-1.78-1.27-3.05-2.54-4.31c-1.27-1.02-2.79-1.27-4.82-1.27
	c-0.25,0-0.76,0-1.02,0h-0.25l-7.61-6.85c-0.25-1.27-0.51-2.28-1.27-3.55c-0.76-1.27-2.28-2.28-4.06-2.54L66.23,14l0,0
	c-0.25,0-0.51,0-0.76,0c-1.78,0-3.55,0.76-4.57,2.03c-0.48,0.53-0.96,1.22-1.08,1.47l-0.95,0.31l-9.9,3.05
	c-1.52-1.02-3.05-1.52-4.82-1.52c-1.02,0-1.78,0.25-2.54,0.51s-1.52,1.02-2.28,1.78l-4.82,6.35c-0.76,1.02-1.02,2.28-1.02,3.81
	c0,1.52,0.51,2.79,1.27,4.31l-2.28,7.36c-1.52,0.25-2.79,0.76-4.06,1.52c-1.27,1.02-2.28,2.79-2.28,4.82v7.87
	c0,2.03,1.02,3.81,2.28,4.82c0.76,0.76,2.03,1.27,3.05,1.52l0,0l0.25,2.79l0.25,0.25c-10.91,2.54-18.27,12.94-17.01,24.37l0,0v0.25
	c0.76,5.58,3.55,10.41,7.11,13.96l-2.54,3.81l6.09,4.57l2.79-4.06c3.55,1.52,7.36,2.03,11.68,1.78l0,0h0.25
	c5.08-0.51,9.64-2.79,12.94-6.35l-5.08-5.33c-2.28,2.28-5.33,3.81-8.63,4.31h-0.25c-8.38,1.02-15.74-5.08-17.01-13.2V90.9l0,0l0,0
	C21.3,82.53,27.4,75.17,35.77,73.9l0,0l0,0l0,0c8.38-1.02,15.74,5.08,17.01,13.2v0.25l7.11-0.76v-0.25
	c-1.27-11.42-11.17-19.8-22.59-19.8v-0.51l-0.25-2.79c0.51-0.25,0.76-0.51,1.27-0.76c1.27-1.02,2.28-2.79,2.28-4.82v-7.87
	c0-2.03-1.02-3.81-2.28-4.82c-0.25-0.25-0.76-0.51-1.27-0.76l1.52-5.08c0.76,0.25,1.52,0.51,2.54,0.51s1.78-0.25,2.54-0.51
	s1.52-1.02,2.28-1.78l4.82-6.35c0.76-1.02,1.02-2.28,1.02-3.81c0-0.51,0-1.27-0.25-1.78l6.6-2.03c0.25,1.02,0.51,2.03,1.27,2.79
	c0.76,1.27,2.28,2.28,4.06,2.54l0,0l7.87,1.27c0.25,0,0.51,0,0.76,0c1.78,0,3.55-0.76,4.57-2.03c0.25-0.25,0.51-0.76,1.02-1.27
	l4.31,3.81c-1.02,1.02-1.52,2.54-1.52,4.31c0,0.25,0,0.51,0,0.76l0,0l1.02,7.87c0.25,1.78,1.27,3.05,2.54,4.31
	c0.76,0.51,1.52,0.76,2.54,1.02v2.54c0,0.25,0,0.25,0,0.51C75.37,53.59,67.24,63.24,67.5,74.66l0,0v0.25
	c0.51,12.44,10.66,22.34,23.1,21.83h0.25c12.44-0.51,22.33-10.66,21.83-23.1l0,0L113.18,73.14z M35.77,57.4c0,0.25,0,0.51-0.51,0.76
	c-0.51,0.25-1.02,0.51-1.78,0.51s-1.52-0.25-1.78-0.51c-0.51-0.25-0.51-0.51-0.51-0.76v-7.87c0-0.25,0-0.51,0.51-0.76
	c0.51-0.25,1.02-0.51,1.78-0.51s1.52,0.25,1.78,0.51c0.51,0.25,0.51,0.51,0.51,0.76V57.4z M46.94,27.2l-4.82,6.35l-0.25,0.25
	c-0.25,0-0.25,0-0.76,0s-1.27-0.25-1.78-0.76c-0.76-0.51-1.27-1.52-1.27-2.03c0-0.25,0-0.51,0.25-0.51l4.82-6.35l0.25-0.25
	c0.25,0,0.25,0,0.76,0s1.27,0.25,1.78,0.76c0.76,0.51,1.27,1.52,1.27,2.03C46.94,26.94,46.94,27.2,46.94,27.2z M74.35,22.38
	c-0.18,1.16-0.94,2.31-1.52,2.28l0,0l-7.87-1.27l0,0c-1.02-0.24-1.4-1.1-1.27-2.54c0.17-1.94,1.15-2.35,1.52-2.28l0,0l0,0l7.87,1.27
	C74.41,20.15,74.48,21.56,74.35,22.38z M86.79,42.17l-1.02-7.87l0,0l0,0c0-0.25,0-0.51,0.51-0.76c0.25-0.25,1.02-0.76,1.78-0.76
	c0.25,0,0.25,0,0.51,0c0.76,0,1.27,0.25,1.52,0.51s0.51,0.51,0.51,0.76l1.02,7.87l0,0l0,0c0,0.25,0,0.51-0.51,0.76
	c-0.25,0.25-1.02,0.76-1.78,0.76c-0.25,0-0.25,0-0.51,0c-0.76,0-1.27-0.25-1.52-0.51C86.79,42.68,86.79,42.43,86.79,42.17z
	 M106.08,73.39c0.25,8.38-6.35,15.23-14.72,15.48l0,0l0,0l0,0c-8.38,0.25-15.23-6.35-15.48-14.72V73.9
	c-0.25-8.38,6.35-15.23,14.72-15.48h0.25C98.46,58.16,105.57,64.76,106.08,73.39L106.08,73.39L106.08,73.39L106.08,73.39z"/>
</svg>
