<?xml version="1.0" encoding="utf-8"?>
<!-- Generator: Adobe Illustrator 24.0.1, SVG Export Plug-In . SVG Version: 6.00 Build 0)  -->
<svg version="1.1" id="Layer_1" xmlns="http://www.w3.org/2000/svg" xmlns:xlink="http://www.w3.org/1999/xlink" x="0px" y="0px"
	 viewBox="0 0 128 128" style="enable-background:new 0 0 128 128;" xml:space="preserve">
<path d="M99.24,34.64c-2.03,0-4.36,3.2-5.23,7.85H82.38c-1.74-2.91-4.65-5.52-7.85-6.69v-8.72h11.34c2.33,0,4.36-1.74,4.36-4.36
	v-0.58c0-2.33-1.74-4.36-4.36-4.36H74.53C74.24,15.74,72.79,14,70.17,14h-2.33c-2.03,0-4.07,1.74-4.36,3.78H51.57
	c-2.33,0-4.36,1.74-4.36,4.36v0.58c0,2.33,1.74,4.36,4.36,4.36h11.92v8.43c-3.78,1.16-6.69,3.78-8.43,6.98c-1.74,0-4.07,0-6.98,0
	c-14.24,0-23.84,11.05-23.84,25.87c0,2.91,0,6.1,0,6.1h14.53c0,0,0-2.62,0-4.36c0-6.69,5.52-12.21,12.5-12.21c1.74,0,2.91,0,4.07,0
	c2.62,4.65,7.56,7.85,13.66,7.85s11.05-3.2,13.66-8.14h11.34c0.87,4.94,2.91,8.14,5.23,8.14c3.2,0,6.1-6.98,6.1-15.7
	S102.44,34.64,99.24,34.64z M31.51,114c6.1,0,11.05-4.94,8.14-11.63c-2.62-6.69-8.14-18.9-8.14-18.9s-5.81,12.21-8.14,18.9
	C20.75,109.64,25.7,114,31.51,114z"/>
</svg>
