<?xml version="1.0" encoding="utf-8"?>
<!-- Generator: Adobe Illustrator 23.0.1, SVG Export Plug-In . SVG Version: 6.00 Build 0)  -->
<svg version="1.1" id="レイヤー_1" xmlns="http://www.w3.org/2000/svg" xmlns:xlink="http://www.w3.org/1999/xlink" x="0px"
	 y="0px" viewBox="0 0 500 150" style="enable-background:new 0 0 500 150;" xml:space="preserve">
<style type="text/css">
	.st0{fill:#CCCCCC;}
	.st1{fill:none;}
	.st2{fill:#F39800;}
	.st3{fill:#CC0000;}
</style>
<g>
	<path class="st0" d="M132.5,31.1h-16.2c-0.3,0-0.6,0.3-0.6,0.6V32c0,0.3,0.3,0.6,0.6,0.6h16.4c0.3,0,0.6-0.3,0.6-0.6v-0.3
		C133.1,31.5,132.8,31.1,132.5,31.1z"/>
	<path class="st0" d="M114.8,35.4c0.4-0.8-1.5-2-2.1-2.8c-1.5-2.1-0.7-6.8,3.1-6.8v-4c0,0-3.2,0.1-5.4,2.6
		c-2.2,2.5-2.7,7.6,0.4,10.4C113,36.8,114.5,36.3,114.8,35.4z"/>
	<path class="st0" d="M134,12.2c-0.4,0.8,1.5,2,2.1,2.8c1.5,2.1,0.7,6.8-3.1,6.8v4c0,0,3.2-0.1,5.4-2.6c2.2-2.5,2.7-7.6-0.4-10.4
		C135.8,10.8,134.3,11.4,134,12.2z"/>
	<g>
		<path class="st0" d="M124.4,20.8c0.5,0,0.9-0.4,0.9-0.9v-5.7c0-0.5-0.4-0.9-0.9-0.9s-0.9,0.4-0.9,0.9v5.7
			C123.4,20.4,123.9,20.8,124.4,20.8z M124,14.3c0-0.2,0.2-0.4,0.4-0.4c0.2,0,0.4,0.2,0.4,0.4V20c0,0.2-0.2,0.4-0.4,0.4
			c-0.2,0-0.4-0.2-0.4-0.4V14.3z"/>
		<path class="st0" d="M116.2,31.1c-0.3,0-0.6,0.3-0.6,0.6V32c0,0.3,0.3,0.6,0.6,0.6h0.4V31h-0.4V31.1z"/>
		<path class="st0" d="M124.4,8c-4.3,0-7.7,4.3-7.7,9.6v13H132v-13C132.1,12.3,128.6,8,124.4,8z M123.4,14.3c0-0.5,0.4-0.9,0.9-0.9
			s0.9,0.4,0.9,0.9V20c0,0.5-0.4,0.9-0.9,0.9s-0.9-0.4-0.9-0.9V14.3z M120.3,16.8c-0.5,0-0.8-0.6-0.7-1.3c0.1-0.6,0.5-1.1,0.9-1.1
			c0.5,0,0.8,0.6,0.7,1.3C121.2,16.4,120.7,16.8,120.3,16.8z M124.4,25.1c-0.7,0-1.3-0.6-1.3-1.5s0.5-1.5,1.3-1.5s1.2,0.6,1.2,1.5
			S125.1,25.1,124.4,25.1z M128.4,16.8c-0.5,0-0.9-0.4-0.9-1.1c-0.1-0.6,0.3-1.3,0.7-1.3c0.5,0,0.9,0.4,0.9,1.1
			C129.2,16.2,129,16.8,128.4,16.8z"/>
		<rect x="116.7" y="33.2" class="st0" width="15.3" height="7.9"/>
		<path class="st0" d="M124.4,20.3c0.2,0,0.4-0.2,0.4-0.4v-5.7c0-0.2-0.2-0.4-0.4-0.4c-0.2,0-0.4,0.2-0.4,0.4v5.7
			C124,20.2,124.2,20.3,124.4,20.3z"/>
	</g>
	<rect id="XMLID_2_" x="100" y="0" class="st1" width="50" height="50"/>
</g>
<g>
	<rect id="XMLID_3_" x="450" y="0" class="st1" width="50" height="50"/>
	<path class="st0" d="M482,14.7l-2.1,1.8l2.2,1.4l-5.8,3.5l3.3-3.5l-2.2-0.8l3.1-3.6l-5.6-5.6l-7.3,7.3V9.9h-4.5v9.6l-9.2,9.2
		l3.2,3.2l4.4-4.4v9.3l3.4-2.2l-1.7-1.5l7.2-5.1l-4.9,5l1.6,1.5l-5.5,5.1v2.6h26.8v-1.6l-2.5-1.1l1.7-0.9l-3.6-2.7l4.5,0.9v-9.5
		l4.4,4.4l3.2-3.2L482,14.7z M478.5,34h-4.2v-7h4.2V34z M484.3,30.5l-1-0.6l0.4,1.5l-2.5-0.6l1.6,2.2l-1.8,0.2l0.8,0.9h-1.6v-7h4.2
		L484.3,30.5L484.3,30.5z"/>
</g>
<g>
	<rect id="XMLID_4_" x="150" y="0" class="st1" width="50" height="50"/>
	<g>
		<rect x="155.1" y="38.5" class="st0" width="38.3" height="0.8"/>
		<polygon class="st0" points="157.7,20.9 175.6,10.5 175.2,9.8 156.9,20.4 156.9,35.9 155.1,35.9 155.1,36.7 157.7,36.7 		"/>
		<path class="st0" d="M160.2,20.8l-1.1,1.4v14.5h15l1.7-1.5V13.4l-1.3-0.7L160.2,20.8z M160.6,21.5l6.1-3.4v11.5h-6.9v-7.1
			L160.6,21.5z M173.9,35.9h-14v-6H175V35L173.9,35.9z M175,29.5h-7.8V17.7l7.3-4.1L175,14V29.5z"/>
		<path class="st0" d="M193,13.2v6.1h-7.3v-6.1h-0.4v6.1h-7.2v-7.7l1.2-0.7l-0.3-0.6l-1.8,0.9v24.1l1.5,1.4h13.5l1.5-1.4V13.2H193z
			 M193,19.8v7.6h-7.3v-7.6H193z M185.3,19.8v7.6h-7.2v-7.6H185.3z M178.1,35v-7.2h7.2v8.1h-6.2L178.1,35z M192,35.9h-6.2v-8.1h7.3
			V35L192,35.9z"/>
	</g>
</g>
<g>
	<rect id="XMLID_5_" x="300" y="0" class="st1" width="50" height="50"/>
	<path id="XMLID_13_" class="st0" d="M334.1,30.9l1.8-9.9l2.7,0.4c0.3,0,0.4-0.2,0.3-0.4l-9.6-10.8c-0.1-0.1-0.3-0.1-0.4-0.1
		l-12.7,7.1c-0.2,0.1-0.2,0.4,0.1,0.5l11.4,2l-8.5-1.5l-1.8,9.8l-13.1-2.4v15h40.6v-7.7L334.1,30.9z M324.6,21.4l-0.5,2.8l-1.8-0.3
		h0.2L323,21h-0.1L324.6,21.4z M321.2,20.8l1.5,0.3l-0.5,2.8l-1.5-0.3L321.2,20.8z M330,23l3.3,0.6l-1.3,7l-3.3-0.6L330,23z
		 M340,37.4c-0.2,0.3-0.5,0.5-0.9,0.5c-0.1,0-0.1,0-0.2,0L306.2,32c-0.5-0.1-0.9-0.6-0.8-1.3c0.1-0.5,0.6-0.9,1.2-0.8l30,5.5
		l-0.6-0.8c-0.3-0.4-0.2-1.1,0.2-1.5c0.4-0.3,1.1-0.2,1.5,0.2l2.3,2.9C340.2,36.6,340.2,37.1,340,37.4z"/>
</g>
<g>
	<path id="XMLID_6_" class="st0" d="M288.9,30.2h-4.5V20h2.9c0.3,0,0.5-0.3,0.3-0.5l-11.1-9.1c-0.1-0.1-0.3-0.1-0.4,0l-11.2,9.2
		c-0.2,0.2-0.1,0.5,0.2,0.5h11.5h-8.8v10.1H267l-6.8-7.3h-6v16.7h41.7L288.9,30.2z M274,21.9V25h-2.1v-3.1H274z M270.8,21.9h1V25h-1
		V21.9z M279.2,22.9h4.2v7.3h-4.2V22.9z M256.2,25h3.3l6.8,7.3h21.5l4.2,5.2h-35.7L256.2,25L256.2,25z"/>
	<rect x="250" y="0" class="st1" width="50" height="50"/>
</g>
<g>
	<rect id="XMLID_7_" x="350" y="0" class="st1" width="50" height="50"/>
	<path class="st0" d="M381.8,12.3l1.8-6.1c0.2-0.8-0.2-1.7-1-1.9h-0.1c-0.8-0.2-1.7,0.2-1.9,1l-2.1,7.1L381.8,12.3L381.8,12.3
		L381.8,12.3z"/>
	<g>
		<path class="st0" d="M387.3,27.3c-2-3-3.1-5-2.2-6.9c0.3-0.6,0.7-1,1-1.4c1.3-1.4,2-1.6,2-1.6v-3h-8.4h-4.5
			c-0.2,2.5-1.1,4.8-2,4.8s-0.9-2.6-1.9-2.5c-0.8,0.1-0.7,4.2-1.7,4.2c-0.9,0-0.7-3.8-1.6-4c-0.8-0.2-0.4,1.8-1.4,1.7
			c-0.6-0.1-0.9-2.5-1.1-4.2h-4v3c0,0,0.8,0.2,2,1.6c0.3,0.3,0.7,0.7,1,1.4c0.9,1.9-0.2,3.9-2.2,6.9c-1.5,2.3-3.4,5.1-3.1,8.4
			c0.5,6.2,6.4,9.2,11.1,10h8.6c4.8-0.8,10.7-3.8,11.1-10C390.7,32.4,388.8,29.6,387.3,27.3z M381.4,38.2c-0.5,0.4-1.1,0.9-1.1,1.7
			v1.6c0,0.7-0.6,1.4-1.3,1.4h-1.1c-0.4,0-0.6-0.3-0.6-0.6v-2c0-0.5-0.3-0.5-0.5-0.5c-0.2,0-0.5,0.1-0.5,0.5s0,1.7,0,2.1
			s-0.1,0.5-0.5,0.5h-0.1c0,0-0.9,0-1.4,0h-0.1c-0.4,0-0.5-0.1-0.5-0.5s0-1.7,0-2.1s-0.2-0.6-0.5-0.6c-0.3,0-0.5,0-0.5,0.5v2
			c0,0.3-0.2,0.6-0.6,0.6h-1c-0.6,0-1.3-0.6-1.3-1.4v-1.6c0-0.7-0.6-1.3-1.1-1.7s-3-1.9-3-5.4c0-4.7,4.3-8.5,9.5-8.5
			c5.1,0,9.5,3.8,9.5,8.5C384.4,36.4,382,37.8,381.4,38.2z"/>
		<path class="st0" d="M375.3,35.9l0.6,1c0.2,0.3,0,0.7-0.4,0.7h-1.3c-0.4,0-0.6-0.4-0.4-0.7l0.6-1
			C374.7,35.5,375.1,35.5,375.3,35.9z"/>
		<ellipse transform="matrix(0.9534 -0.3016 0.3016 0.9534 7.9196 115.8763)" class="st0" cx="379.2" cy="32.3" rx="2.3" ry="3"/>
		<ellipse transform="matrix(0.3016 -0.9534 0.9534 0.3016 227.8997 375.6759)" class="st0" cx="370.4" cy="32.3" rx="3" ry="2.3"/>
	</g>
</g>
<g>
	<rect id="XMLID_8_" x="400" y="0" class="st1" width="50" height="50"/>
	<g>
		<path class="st0" d="M444.4,28.7c-0.1-4.6-3.6-8.1-8.1-8.5c0-0.1,0-0.1,0-0.2v-1.1l0,0c0.3-0.1,0.5-0.3,0.8-0.5
			c0.5-0.4,0.8-1,0.8-1.8c0-0.1,0-0.2,0-0.3l-0.4-3.1c-0.1-0.7-0.5-1.2-1-1.7c-0.5-0.4-1.1-0.5-1.9-0.5c-0.1,0-0.3,0-0.4,0h-0.1
			l-3-2.7c-0.1-0.5-0.2-0.9-0.5-1.4s-0.9-0.9-1.6-1l-3.1-0.5l0,0c-0.1,0-0.2,0-0.3,0c-0.7,0-1.4,0.3-1.8,0.8
			c-0.3,0.3-0.5,0.7-0.7,1.1L423,6.9l-3.9,1.3c-0.6-0.4-1.2-0.6-1.9-0.6c-0.4,0-0.7,0.1-1,0.2c-0.3,0.1-0.6,0.4-0.9,0.7l-1.9,2.5
			c-0.3,0.4-0.4,0.9-0.4,1.5s0.2,1.1,0.5,1.7l-0.9,2.9c-0.6,0.1-1.1,0.3-1.6,0.6c-0.5,0.4-0.9,1.1-0.9,1.9v3.1
			c0,0.8,0.4,1.5,0.9,1.9c0.3,0.3,0.8,0.5,1.2,0.6l0,0l0.1,1.1l0.1,0.1c-4.3,1-7.2,5.1-6.7,9.6l0,0l0,0c0.3,2.2,1.4,4.1,2.8,5.5
			l-1,1.5l2.4,1.8l1.1-1.6c1.4,0.6,2.9,0.8,4.6,0.7l0,0h0.1c2-0.2,3.8-1.1,5.1-2.5l-2-2.1c-0.9,0.9-2.1,1.5-3.4,1.7h-0.1
			c-3.3,0.4-6.2-2-6.7-5.2v-0.1l0,0l0,0c-0.4-3.3,2-6.2,5.3-6.7l0,0l0,0l0,0c3.3-0.4,6.2,2,6.7,5.2v0.1l2.8-0.3v0
			c-0.5-4.5-4.4-7.8-8.9-7.8V26l-0.1-1.1c0.2-0.1,0.3-0.2,0.5-0.3c0.5-0.4,0.9-1.1,0.9-1.9v-3.1c0-0.8-0.4-1.5-0.9-1.9
			c-0.1-0.1-0.3-0.2-0.5-0.3l0.6-2c0.3,0.1,0.6,0.2,1,0.2c0.4,0,0.7-0.1,1-0.2c0.3-0.1,0.6-0.4,0.9-0.7l1.9-2.5
			c0.3-0.4,0.4-0.9,0.4-1.5c0-0.2,0-0.5-0.1-0.7l2.6-0.8c0.1,0.4,0.2,0.8,0.5,1.1c0.3,0.5,0.9,0.9,1.6,1l0,0l3.1,0.5
			c0.1,0,0.2,0,0.3,0c0.7,0,1.4-0.3,1.8-0.8c0.1-0.1,0.2-0.3,0.4-0.5l1.7,1.5c-0.4,0.4-0.6,1-0.6,1.7c0,0.1,0,0.2,0,0.3l0,0l0.4,3.1
			c0.1,0.7,0.5,1.2,1,1.7c0.3,0.2,0.6,0.3,1,0.4v1c0,0.1,0,0.1,0,0.2c-4.4,0.7-7.6,4.5-7.5,9l0,0v0.1c0.2,4.9,4.2,8.8,9.1,8.6h0.1
			c4.9-0.2,8.8-4.2,8.6-9.1l0,0L444.4,28.7z M413.9,22.6c0,0.1,0,0.2-0.2,0.3c-0.2,0.1-0.4,0.2-0.7,0.2s-0.6-0.1-0.7-0.2
			c-0.2-0.1-0.2-0.2-0.2-0.3v-3.1c0-0.1,0-0.2,0.2-0.3c0.2-0.1,0.4-0.2,0.7-0.2s0.6,0.1,0.7,0.2c0.2,0.1,0.2,0.2,0.2,0.3V22.6z
			 M418.3,10.7l-1.9,2.5l-0.1,0.1c-0.1,0-0.1,0-0.3,0s-0.5-0.1-0.7-0.3c-0.3-0.2-0.5-0.6-0.5-0.8c0-0.1,0-0.2,0.1-0.2l1.9-2.5
			l0.1-0.1c0.1,0,0.1,0,0.3,0s0.5,0.1,0.7,0.3c0.3,0.2,0.5,0.6,0.5,0.8C418.3,10.6,418.3,10.7,418.3,10.7z M429.1,8.7
			c0,0.3-0.2,0.5-0.3,0.7c-0.1,0.1-0.3,0.2-0.3,0.2l0,0l-3.1-0.5l-0.1,1l0.1-1c-0.1,0-0.2,0-0.3-0.2c-0.1-0.1-0.2-0.4-0.2-0.6
			c0-0.1,0-0.1,0-0.2c0-0.3,0.2-0.5,0.3-0.7c0.1-0.1,0.3-0.2,0.3-0.2l0,0l0,0l3.1,0.5c0.1,0,0.2,0,0.2,0.2c0.1,0.1,0.2,0.4,0.2,0.6
			C429.1,8.6,429.1,8.6,429.1,8.7z M434,16.6l-0.4-3.1l0,0l0,0c0-0.1,0-0.2,0.2-0.3c0.1-0.1,0.4-0.3,0.7-0.3c0.1,0,0.1,0,0.2,0
			c0.3,0,0.5,0.1,0.6,0.2c0.1,0.1,0.2,0.2,0.2,0.3l0.4,3.1l1-0.1l-1,0.1l0,0c0,0.1,0,0.2-0.2,0.3c-0.1,0.1-0.4,0.3-0.7,0.3
			c-0.1,0-0.1,0-0.2,0c-0.3,0-0.5-0.1-0.6-0.2C434,16.8,434,16.7,434,16.6z M441.6,28.9c0.1,3.3-2.5,6-5.8,6.1l0,0l0,0l0,0
			c-3.3,0.1-6-2.5-6.1-5.8v-0.1c-0.1-3.3,2.5-6,5.8-6.1h0.1C438.6,22.9,441.4,25.5,441.6,28.9L441.6,28.9L441.6,28.9L441.6,28.9z"/>
	</g>
</g>
<g>
	<rect id="XMLID_9_" x="50" y="0" class="st1" width="50" height="50"/>
	<rect x="63.6" y="9.6" class="st0" width="2.8" height="30.9"/>
	<rect x="84" y="9.6" class="st0" width="2.8" height="30.9"/>
	<g>
		<rect x="74.2" y="9.6" class="st0" width="2.1" height="3"/>
		<rect x="74.2" y="17.6" class="st0" width="2.1" height="5"/>
		<rect x="74.2" y="27.6" class="st0" width="2.1" height="5"/>
		<rect x="74.2" y="37.6" class="st0" width="2.1" height="2.8"/>
	</g>
</g>
<g>
	<rect id="XMLID_10_" y="0" class="st1" width="50" height="50"/>
	<g>
		<path class="st0" d="M36.8,16.4c-0.7,0-1.5,1.1-1.8,2.7h-4c-0.6-1-1.6-1.9-2.7-2.3v-3h3.9c0.8,0,1.5-0.6,1.5-1.5v-0.2
			c0-0.8-0.6-1.5-1.5-1.5h-3.9c-0.1-0.7-0.6-1.3-1.5-1.3H26c-0.7,0-1.4,0.6-1.5,1.3h-4.1c-0.8,0-1.5,0.6-1.5,1.5v0.2
			c0,0.8,0.6,1.5,1.5,1.5h4.1v2.9c-1.3,0.4-2.3,1.3-2.9,2.4c-0.6,0-1.4,0-2.4,0c-4.9,0-8.2,3.8-8.2,8.9c0,1,0,2.1,0,2.1h5
			c0,0,0-0.9,0-1.5c0-2.3,1.9-4.2,4.3-4.2c0.6,0,1,0,1.4,0c0.9,1.6,2.6,2.7,4.7,2.7s3.8-1.1,4.7-2.8H35c0.3,1.7,1,2.8,1.8,2.8
			c1.1,0,2.1-2.4,2.1-5.4S37.9,16.4,36.8,16.4z"/>
		<path class="st0" d="M13.5,43.7c2.1,0,3.8-1.7,2.8-4c-0.9-2.3-2.8-6.5-2.8-6.5s-2,4.2-2.8,6.5C9.8,42.2,11.5,43.7,13.5,43.7z"/>
	</g>
</g>
<g>
	<rect id="XMLID_11_" x="200" y="0" class="st1" width="50" height="50"/>
	<g id="jTnhPa_2_">
		<g>
			<g>
				<path class="st0" d="M222.1,27.6c-4.9,0-9.8,0-14.7,0c-0.6,0-0.6,0-0.6-0.6c0-0.5,0-1,0-1.6c0-0.3,0.1-0.4,0.4-0.4
					c0.1,0,0.3,0,0.4,0c9.6,0,19.1,0,28.6,0c1.1,0,2.1-0.4,2.6-1.6c0.4-0.9,0.3-1.8-0.3-2.6c-0.7-0.8-1.6-1.1-2.7-0.8
					c-0.9,0.3-1.7,0.9-1.8,2c-0.1,0.4-0.2,0.5-0.6,0.5c-0.5,0-1,0-1.6,0s-0.5-0.1-0.5-0.6c0.2-1.7,1-2.9,2.4-3.8
					c3.2-2.1,7.4-0.1,7.9,3.6c0.4,3-2,5.8-5,5.8C231.8,27.6,227,27.6,222.1,27.6z"/>
				<path class="st0" d="M217.5,22.4c-2.5,0-5.1,0-7.6,0c-0.5,0-0.5,0-0.5-0.5s0-1,0-1.6c0-0.4,0.1-0.5,0.5-0.5c1.6,0,3.1,0,4.8,0
					c3.3,0,6.8,0,10.1,0c1.4,0,2.4-0.8,2.6-2.2c0.2-0.9-0.3-2-1.2-2.5c-0.9-0.5-2.1-0.4-2.9,0.2c-0.5,0.4-0.8,0.9-0.9,1.6
					c0,0.3-0.2,0.4-0.5,0.4c-0.5,0-1,0-1.6,0c-0.4,0-0.5-0.1-0.5-0.5c0.2-1.9,1.1-3.3,2.8-4.2c3.2-1.6,6.8,0.3,7.4,3.9
					c0.5,3-1.9,5.9-5,5.9C222.5,22.4,220,22.4,217.5,22.4z"/>
				<path class="st0" d="M224,30.1c2.9,0,5.7,0,8.6,0c2,0,3.8,1.6,3.9,3.4c0.2,2.2-1.3,4-3.3,4.3c-2.1,0.3-4.1-1.3-4.4-3.3
					c-0.1-0.5,0-0.6,0.5-0.6s1,0,1.6,0c0.3,0,0.5,0.1,0.6,0.4c0.2,0.5,0.7,0.9,1.2,0.8c0.6,0,1-0.4,1.1-1c0.2-0.7-0.4-1.5-1.1-1.5
					c-0.2,0-0.3,0-0.5,0c-5.6,0-11.4,0-17,0c-0.6,0-0.6,0-0.6-0.6c0-0.4,0-0.8,0-1.3c0-0.7,0-0.7,0.6-0.7
					C218.1,30.1,221,30.1,224,30.1z"/>
			</g>
		</g>
	</g>
</g>
<g>
	<path class="st2" d="M132.5,81.1h-16.2c-0.3,0-0.6,0.3-0.6,0.6V82c0,0.3,0.3,0.6,0.6,0.6h16.4c0.3,0,0.6-0.3,0.6-0.6v-0.3
		C133.1,81.5,132.8,81.1,132.5,81.1z"/>
	<path class="st2" d="M114.8,85.4c0.4-0.8-1.5-2-2.1-2.8c-1.5-2.1-0.7-6.8,3.1-6.8v-4c0,0-3.2,0.1-5.4,2.6
		c-2.2,2.5-2.7,7.6,0.4,10.4C113,86.8,114.5,86.3,114.8,85.4z"/>
	<path class="st2" d="M134,62.2c-0.4,0.8,1.5,2,2.1,2.8c1.5,2.1,0.7,6.8-3.1,6.8v4c0,0,3.2-0.1,5.4-2.6c2.2-2.5,2.7-7.6-0.4-10.4
		C135.8,60.8,134.3,61.4,134,62.2z"/>
	<g>
		<path class="st1" d="M124.4,70.8c0.5,0,0.9-0.4,0.9-0.9v-5.7c0-0.5-0.4-0.9-0.9-0.9s-0.9,0.4-0.9,0.9v5.7
			C123.4,70.4,123.9,70.8,124.4,70.8z M124,64.3c0-0.2,0.2-0.4,0.4-0.4c0.2,0,0.4,0.2,0.4,0.4V70c0,0.2-0.2,0.4-0.4,0.4
			c-0.2,0-0.4-0.2-0.4-0.4V64.3z"/>
		<path class="st1" d="M116.2,81.1c-0.3,0-0.6,0.3-0.6,0.6V82c0,0.3,0.3,0.6,0.6,0.6h0.4V81L116.2,81.1L116.2,81.1z"/>
		<path class="st2" d="M124.4,58c-4.3,0-7.7,4.3-7.7,9.6v13H132v-13C132.1,62.3,128.6,58,124.4,58z M123.4,64.3
			c0-0.5,0.4-0.9,0.9-0.9s0.9,0.4,0.9,0.9V70c0,0.5-0.4,0.9-0.9,0.9s-0.9-0.4-0.9-0.9V64.3z M120.3,66.8c-0.5,0-0.8-0.6-0.7-1.3
			c0.1-0.6,0.5-1.1,0.9-1.1c0.5,0,0.8,0.6,0.7,1.3C121.2,66.4,120.7,66.8,120.3,66.8z M124.4,75.1c-0.7,0-1.3-0.6-1.3-1.5
			s0.5-1.5,1.3-1.5s1.2,0.6,1.2,1.5S125.1,75.1,124.4,75.1z M128.4,66.8c-0.5,0-0.9-0.4-0.9-1.1c-0.1-0.6,0.3-1.3,0.7-1.3
			c0.5,0,0.9,0.4,0.9,1.1S129,66.8,128.4,66.8z"/>
		<rect x="116.7" y="83.2" class="st2" width="15.3" height="7.9"/>
		<path class="st2" d="M124.4,70.3c0.2,0,0.4-0.2,0.4-0.4v-5.7c0-0.2-0.2-0.4-0.4-0.4c-0.2,0-0.4,0.2-0.4,0.4v5.7
			C124,70.2,124.2,70.3,124.4,70.3z"/>
	</g>
	<rect id="XMLID_23_" x="100" y="50" class="st1" width="50" height="50"/>
</g>
<g>
	<rect id="XMLID_22_" x="450" y="50" class="st1" width="50" height="50"/>
	<path class="st2" d="M482,64.7l-2.1,1.8l2.2,1.4l-5.8,3.5l3.3-3.5l-2.2-0.8l3.1-3.6l-5.6-5.6l-7.3,7.3v-5.1h-4.5v9.6l-9.2,9.2
		l3.2,3.2l4.4-4.4V87l3.4-2.2l-1.7-1.5l7.2-5.1l-4.9,5l1.6,1.5l-5.5,5.1v2.6h26.8v-1.6l-2.5-1.1l1.7-0.9l-3.6-2.7l4.5,0.9v-9.5
		l4.4,4.4l3.2-3.2L482,64.7z M478.5,84h-4.2v-7h4.2V84z M484.3,80.5l-1-0.6l0.4,1.5l-2.5-0.6l1.6,2.2l-1.8,0.2l0.8,0.9h-1.6v-7h4.2
		L484.3,80.5L484.3,80.5z"/>
</g>
<g>
	<rect id="XMLID_21_" x="150" y="50" class="st1" width="50" height="50"/>
	<g>
		<rect x="155.1" y="88.5" class="st2" width="38.3" height="0.8"/>
		<polygon class="st2" points="157.7,70.9 175.6,60.5 175.2,59.8 156.9,70.4 156.9,85.9 155.1,85.9 155.1,86.7 157.7,86.7 		"/>
		<path class="st2" d="M160.2,70.8l-1.1,1.4v14.5h15l1.7-1.5V63.4l-1.3-0.7L160.2,70.8z M160.6,71.5l6.1-3.4v11.5h-6.9v-7.1
			L160.6,71.5z M173.9,85.9h-14v-6H175V85L173.9,85.9z M175,79.5h-7.8V67.7l7.3-4.1L175,64V79.5z"/>
		<path class="st2" d="M193,63.2v6.1h-7.3v-6.1h-0.4v6.1h-7.2v-7.7l1.2-0.7l-0.3-0.6l-1.8,0.9v24.1l1.5,1.4h13.5l1.5-1.4V63.2H193z
			 M193,69.8v7.6h-7.3v-7.6H193z M185.3,69.8v7.6h-7.2v-7.6H185.3z M178.1,85v-7.2h7.2v8.1h-6.2L178.1,85z M192,85.9h-6.2v-8.1h7.3
			V85L192,85.9z"/>
	</g>
</g>
<g>
	<rect id="XMLID_20_" x="300" y="50" class="st1" width="50" height="50"/>
	<path id="XMLID_19_" class="st2" d="M334.1,80.9l1.8-9.9l2.7,0.4c0.3,0,0.4-0.2,0.3-0.4l-9.6-10.8c-0.1-0.1-0.3-0.1-0.4-0.1
		l-12.7,7.1c-0.2,0.1-0.2,0.4,0.1,0.5l11.4,2l-8.5-1.5l-1.8,9.8l-13.1-2.4v15h40.6v-7.7L334.1,80.9z M324.6,71.4l-0.5,2.8l-1.8-0.3
		h0.2L323,71h-0.1L324.6,71.4z M321.2,70.8l1.5,0.3l-0.5,2.8l-1.5-0.3L321.2,70.8z M330,73l3.3,0.6l-1.3,7l-3.3-0.6L330,73z
		 M340,87.4c-0.2,0.3-0.5,0.5-0.9,0.5c-0.1,0-0.1,0-0.2,0L306.2,82c-0.5-0.1-0.9-0.6-0.8-1.3c0.1-0.5,0.6-0.9,1.2-0.8l30,5.5
		l-0.6-0.8c-0.3-0.4-0.2-1.1,0.2-1.5c0.4-0.3,1.1-0.2,1.5,0.2l2.3,2.9C340.2,86.6,340.2,87.1,340,87.4z"/>
</g>
<g>
	<path id="XMLID_18_" class="st2" d="M288.9,80.2h-4.5V70h2.9c0.3,0,0.5-0.3,0.3-0.5l-11.1-9.1c-0.1-0.1-0.3-0.1-0.4,0l-11.2,9.2
		c-0.2,0.2-0.1,0.5,0.2,0.5h11.5h-8.8v10.1H267l-6.8-7.3h-6v16.7h41.7L288.9,80.2z M274,71.9V75h-2.1v-3.1H274z M270.8,71.9h1V75h-1
		V71.9z M279.2,72.9h4.2v7.3h-4.2V72.9z M256.2,75h3.3l6.8,7.3h21.5l4.2,5.2h-35.7L256.2,75L256.2,75z"/>
	<rect x="250" y="50" class="st1" width="50" height="50"/>
</g>
<g>
	<rect id="XMLID_17_" x="350" y="50" class="st1" width="50" height="50"/>
	<path class="st2" d="M381.8,62.3l1.8-6.1c0.2-0.8-0.2-1.7-1-1.9h-0.1c-0.8-0.2-1.7,0.2-1.9,1l-2.1,7.1L381.8,62.3L381.8,62.3
		L381.8,62.3z"/>
	<g>
		<path class="st2" d="M387.3,77.3c-2-3-3.1-5-2.2-6.9c0.3-0.6,0.7-1,1-1.4c1.3-1.4,2-1.6,2-1.6v-3h-8.4h-4.5
			c-0.2,2.5-1.1,4.8-2,4.8s-0.9-2.6-1.9-2.5c-0.8,0.1-0.7,4.2-1.7,4.2c-0.9,0-0.7-3.8-1.6-4c-0.8-0.2-0.4,1.8-1.4,1.7
			c-0.6-0.1-0.9-2.5-1.1-4.2h-4v3c0,0,0.8,0.2,2,1.6c0.3,0.3,0.7,0.7,1,1.4c0.9,1.9-0.2,3.9-2.2,6.9c-1.5,2.3-3.4,5.1-3.1,8.4
			c0.5,6.2,6.4,9.2,11.1,10h8.6c4.8-0.8,10.7-3.8,11.1-10C390.7,82.4,388.8,79.6,387.3,77.3z M381.4,88.2c-0.5,0.4-1.1,0.9-1.1,1.7
			v1.6c0,0.7-0.6,1.4-1.3,1.4h-1.1c-0.4,0-0.6-0.3-0.6-0.6v-2c0-0.5-0.3-0.5-0.5-0.5c-0.2,0-0.5,0.1-0.5,0.5s0,1.7,0,2.1
			s-0.1,0.5-0.5,0.5h-0.1c0,0-0.9,0-1.4,0h-0.1c-0.4,0-0.5-0.1-0.5-0.5s0-1.7,0-2.1s-0.2-0.6-0.5-0.6c-0.3,0-0.5,0-0.5,0.5v2
			c0,0.3-0.2,0.6-0.6,0.6h-1c-0.6,0-1.3-0.6-1.3-1.4v-1.6c0-0.7-0.6-1.3-1.1-1.7c-0.5-0.4-3-1.9-3-5.4c0-4.7,4.3-8.5,9.5-8.5
			c5.1,0,9.5,3.8,9.5,8.5C384.4,86.4,382,87.8,381.4,88.2z"/>
		<path class="st2" d="M375.3,85.9l0.6,1c0.2,0.3,0,0.7-0.4,0.7h-1.3c-0.4,0-0.6-0.4-0.4-0.7l0.6-1
			C374.7,85.5,375.1,85.5,375.3,85.9z"/>
		<ellipse transform="matrix(0.9534 -0.3016 0.3016 0.9534 -7.1604 118.2045)" class="st2" cx="379.2" cy="82.3" rx="2.3" ry="3"/>
		<ellipse transform="matrix(0.3016 -0.9534 0.9534 0.3016 180.2275 410.5936)" class="st2" cx="370.4" cy="82.3" rx="3" ry="2.3"/>
	</g>
</g>
<g>
	<rect id="XMLID_16_" x="400" y="50" class="st1" width="50" height="50"/>
	<g>
		<path class="st2" d="M444.4,78.7c-0.1-4.6-3.6-8.1-8.1-8.5c0-0.1,0-0.1,0-0.2v-1.1l0,0c0.3-0.1,0.5-0.3,0.8-0.5
			c0.5-0.4,0.8-1,0.8-1.8c0-0.1,0-0.2,0-0.3l-0.4-3.1c-0.1-0.7-0.5-1.3-1-1.7s-1.1-0.5-1.9-0.5c-0.1,0-0.3,0-0.4,0h-0.1l-3-2.7
			c-0.1-0.5-0.2-0.9-0.5-1.4s-0.9-0.9-1.6-1l-3.1-0.5l0,0c-0.1,0-0.2,0-0.3,0c-0.7,0-1.4,0.3-1.8,0.8c-0.3,0.3-0.5,0.7-0.7,1.1
			l-0.1-0.4l-3.9,1.2c-0.6-0.4-1.2-0.6-1.9-0.6c-0.4,0-0.7,0.1-1,0.2c-0.3,0.1-0.6,0.4-0.9,0.7l-1.9,2.5c-0.3,0.4-0.4,0.9-0.4,1.5
			s0.2,1.1,0.5,1.7l-0.9,2.9c-0.6,0.1-1.1,0.3-1.6,0.6c-0.5,0.4-0.9,1.1-0.9,1.9v3.1c0,0.8,0.4,1.5,0.9,1.9c0.3,0.3,0.8,0.5,1.2,0.6
			l0,0l0.1,1.1l0.1,0.1c-4.3,1-7.2,5.1-6.7,9.6l0,0V86c0.3,2.2,1.4,4.1,2.8,5.5l-1,1.5l2.4,1.8l1.1-1.6c1.4,0.6,2.9,0.8,4.6,0.7l0,0
			h0.1c2-0.2,3.8-1.1,5.1-2.5l-2-2.1c-0.9,0.9-2.1,1.5-3.4,1.7h-0.1c-3.3,0.4-6.2-2-6.7-5.2v-0.1l0,0l0,0c-0.4-3.3,2-6.2,5.3-6.7
			l0,0l0,0l0,0c3.3-0.4,6.2,2,6.7,5.2v0.1l2.8-0.3l0,0c-0.5-4.5-4.4-7.8-8.9-7.8V76l-0.1-1.1c0.2-0.1,0.3-0.2,0.5-0.3
			c0.5-0.4,0.9-1.1,0.9-1.9v-3.1c0-0.8-0.4-1.5-0.9-1.9c-0.1-0.1-0.3-0.2-0.5-0.3l0.6-2c0.3,0.1,0.6,0.2,1,0.2c0.4,0,0.7-0.1,1-0.2
			c0.3-0.1,0.6-0.4,0.9-0.7l1.9-2.5c0.3-0.4,0.4-0.9,0.4-1.5c0-0.2,0-0.5-0.1-0.7l2.6-0.8c0.1,0.4,0.2,0.8,0.5,1.1
			c0.3,0.5,0.9,0.9,1.6,1l0,0l3.1,0.5c0.1,0,0.2,0,0.3,0c0.7,0,1.4-0.3,1.8-0.8c0.1-0.1,0.2-0.3,0.4-0.5l1.7,1.5
			c-0.4,0.4-0.6,1-0.6,1.7c0,0.1,0,0.2,0,0.3l0,0l0.4,3.1c0.1,0.7,0.5,1.2,1,1.7c0.3,0.2,0.6,0.3,1,0.4v1c0,0.1,0,0.1,0,0.2
			c-4.4,0.7-7.6,4.5-7.5,9l0,0v0.1c0.2,4.9,4.2,8.8,9.1,8.6h0.1c4.9-0.2,8.8-4.2,8.6-9.1l0,0L444.4,78.7z M413.9,72.6
			c0,0.1,0,0.2-0.2,0.3c-0.2,0.1-0.4,0.2-0.7,0.2s-0.6-0.1-0.7-0.2c-0.2-0.1-0.2-0.2-0.2-0.3v-3.1c0-0.1,0-0.2,0.2-0.3
			c0.2-0.1,0.4-0.2,0.7-0.2s0.6,0.1,0.7,0.2c0.2,0.1,0.2,0.2,0.2,0.3V72.6z M418.3,60.7l-1.9,2.5l-0.1,0.1c-0.1,0-0.1,0-0.3,0
			s-0.5-0.1-0.7-0.3c-0.3-0.2-0.5-0.6-0.5-0.8c0-0.1,0-0.2,0.1-0.2l1.9-2.5l0.1-0.1c0.1,0,0.1,0,0.3,0s0.5,0.1,0.7,0.3
			c0.3,0.2,0.5,0.6,0.5,0.8C418.3,60.6,418.3,60.7,418.3,60.7z M429.1,58.8c0,0.3-0.2,0.5-0.3,0.7c-0.1,0.1-0.3,0.2-0.3,0.2l0,0
			l-3.1-0.5l-0.1,1l0.1-1c-0.1,0-0.2,0-0.3-0.2c-0.1-0.1-0.2-0.4-0.2-0.6c0-0.1,0-0.1,0-0.2c0-0.3,0.2-0.5,0.3-0.7
			c0.1-0.1,0.3-0.2,0.3-0.2l0,0l0,0l3.1,0.5c0.1,0,0.2,0,0.2,0.2c0.1,0.1,0.2,0.4,0.2,0.6C429.1,58.6,429.1,58.6,429.1,58.8z
			 M434,66.6l-0.4-3.1l0,0l0,0c0-0.1,0-0.2,0.2-0.3c0.1-0.1,0.4-0.3,0.7-0.3c0.1,0,0.1,0,0.2,0c0.3,0,0.5,0.1,0.6,0.2
			c0.1,0.1,0.2,0.2,0.2,0.3l0.4,3.1l1-0.1l-1,0.1l0,0c0,0.1,0,0.2-0.2,0.3c-0.1,0.1-0.4,0.3-0.7,0.3c-0.1,0-0.1,0-0.2,0
			c-0.3,0-0.5-0.1-0.6-0.2C434,66.8,434,66.7,434,66.6z M441.6,78.9c0.1,3.3-2.5,6-5.8,6.1l0,0l0,0l0,0c-3.3,0.1-6-2.5-6.1-5.8v-0.1
			c-0.1-3.3,2.5-6,5.8-6.1h0.1C438.6,72.9,441.4,75.5,441.6,78.9L441.6,78.9L441.6,78.9L441.6,78.9z"/>
	</g>
</g>
<g>
	<rect id="XMLID_15_" x="50" y="50" class="st1" width="50" height="50"/>
	<rect x="63.6" y="59.6" class="st2" width="2.8" height="30.9"/>
	<rect x="84" y="59.6" class="st2" width="2.8" height="30.9"/>
	<g>
		<rect x="74.2" y="59.6" class="st2" width="2.1" height="3"/>
		<rect x="74.2" y="67.6" class="st2" width="2.1" height="5"/>
		<rect x="74.2" y="77.6" class="st2" width="2.1" height="5"/>
		<rect x="74.2" y="87.6" class="st2" width="2.1" height="2.8"/>
	</g>
</g>
<g>
	<rect id="XMLID_14_" y="50" class="st1" width="50" height="50"/>
	<g>
		<path class="st2" d="M36.8,66.4c-0.7,0-1.5,1.1-1.8,2.7h-4c-0.6-1-1.6-1.9-2.7-2.3v-3h3.9c0.8,0,1.5-0.6,1.5-1.5v-0.2
			c0-0.8-0.6-1.5-1.5-1.5h-3.9c-0.1-0.7-0.6-1.3-1.5-1.3H26c-0.7,0-1.4,0.6-1.5,1.3h-4.1c-0.8,0-1.5,0.6-1.5,1.5v0.2
			c0,0.8,0.6,1.5,1.5,1.5h4.1v2.9c-1.3,0.4-2.3,1.3-2.9,2.4c-0.6,0-1.4,0-2.4,0c-4.9,0-8.2,3.8-8.2,8.9c0,1,0,2.1,0,2.1h5
			c0,0,0-0.9,0-1.5c0-2.3,1.9-4.2,4.3-4.2c0.6,0,1,0,1.4,0c0.9,1.6,2.6,2.7,4.7,2.7s3.8-1.1,4.7-2.8H35c0.3,1.7,1,2.8,1.8,2.8
			c1.1,0,2.1-2.4,2.1-5.4S37.9,66.4,36.8,66.4z"/>
		<path class="st2" d="M13.5,93.7c2.1,0,3.8-1.7,2.8-4c-0.9-2.3-2.8-6.5-2.8-6.5s-2,4.2-2.8,6.5C9.8,92.2,11.5,93.7,13.5,93.7z"/>
	</g>
</g>
<g>
	<rect id="XMLID_1_" x="200" y="50" class="st1" width="50" height="50"/>
	<g id="jTnhPa_1_">
		<g>
			<g>
				<path class="st2" d="M222.1,77.6c-4.9,0-9.8,0-14.7,0c-0.6,0-0.6,0-0.6-0.6c0-0.5,0-1,0-1.6c0-0.3,0.1-0.4,0.4-0.4
					c0.1,0,0.3,0,0.4,0c9.6,0,19.1,0,28.6,0c1.1,0,2.1-0.4,2.6-1.6c0.4-0.9,0.3-1.8-0.3-2.6c-0.7-0.8-1.6-1.1-2.7-0.8
					c-0.9,0.3-1.7,0.9-1.8,2c-0.1,0.4-0.2,0.5-0.6,0.5c-0.5,0-1,0-1.6,0s-0.5-0.1-0.5-0.6c0.2-1.7,1-2.9,2.4-3.8
					c3.2-2.1,7.4-0.1,7.9,3.6c0.4,3-2,5.8-5,5.8C231.8,77.6,227,77.6,222.1,77.6z"/>
				<path class="st2" d="M217.5,72.4c-2.5,0-5.1,0-7.6,0c-0.5,0-0.5,0-0.5-0.5s0-1,0-1.6c0-0.4,0.1-0.5,0.5-0.5c1.6,0,3.1,0,4.8,0
					c3.3,0,6.8,0,10.1,0c1.4,0,2.4-0.8,2.6-2.2c0.2-0.9-0.3-2-1.2-2.5s-2.1-0.4-2.9,0.2c-0.5,0.4-0.8,0.9-0.9,1.6
					c0,0.3-0.2,0.4-0.5,0.4c-0.5,0-1,0-1.6,0c-0.4,0-0.5-0.1-0.5-0.5c0.2-1.9,1.1-3.3,2.8-4.2c3.2-1.6,6.8,0.3,7.4,3.9
					c0.5,3-1.9,5.9-5,5.9C222.5,72.4,220,72.4,217.5,72.4z"/>
				<path class="st2" d="M224,80.1c2.9,0,5.7,0,8.6,0c2,0,3.8,1.6,3.9,3.4c0.2,2.2-1.3,4-3.3,4.3c-2.1,0.3-4.1-1.3-4.4-3.3
					c-0.1-0.5,0-0.6,0.5-0.6s1,0,1.6,0c0.3,0,0.5,0.1,0.6,0.4c0.2,0.5,0.7,0.9,1.2,0.8c0.6,0,1-0.4,1.1-1c0.2-0.7-0.4-1.5-1.1-1.5
					c-0.2,0-0.3,0-0.5,0c-5.6,0-11.4,0-17,0c-0.6,0-0.6,0-0.6-0.6c0-0.4,0-0.8,0-1.3c0-0.7,0-0.7,0.6-0.7
					C218.1,80.1,221,80.1,224,80.1z"/>
			</g>
		</g>
	</g>
</g>
<g>
	<path class="st3" d="M132.5,131.1h-16.2c-0.3,0-0.6,0.3-0.6,0.6v0.3c0,0.3,0.3,0.6,0.6,0.6h16.4c0.3,0,0.6-0.3,0.6-0.6v-0.3
		C133.1,131.5,132.8,131.1,132.5,131.1z"/>
	<path class="st3" d="M114.8,135.4c0.4-0.8-1.5-2-2.1-2.8c-1.5-2.1-0.7-6.8,3.1-6.8v-4c0,0-3.2,0.1-5.4,2.6
		c-2.2,2.5-2.7,7.6,0.4,10.4C113,136.8,114.5,136.3,114.8,135.4z"/>
	<path class="st3" d="M134,112.2c-0.4,0.8,1.5,2,2.1,2.8c1.5,2.1,0.7,6.8-3.1,6.8v4c0,0,3.2-0.1,5.4-2.6c2.2-2.5,2.7-7.6-0.4-10.4
		C135.8,110.8,134.3,111.4,134,112.2z"/>
	<g>
		<path class="st3" d="M124.4,120.8c0.5,0,0.9-0.4,0.9-0.9v-5.7c0-0.5-0.4-0.9-0.9-0.9s-0.9,0.4-0.9,0.9v5.7
			C123.4,120.4,123.9,120.8,124.4,120.8z M124,114.3c0-0.2,0.2-0.4,0.4-0.4c0.2,0,0.4,0.2,0.4,0.4v5.7c0,0.2-0.2,0.4-0.4,0.4
			c-0.2,0-0.4-0.2-0.4-0.4V114.3z"/>
		<path class="st3" d="M116.2,131.1c-0.3,0-0.6,0.3-0.6,0.6v0.3c0,0.3,0.3,0.6,0.6,0.6h0.4V131L116.2,131.1L116.2,131.1z"/>
		<path class="st3" d="M124.4,108c-4.3,0-7.7,4.3-7.7,9.6v13H132v-13C132.1,112.3,128.6,108,124.4,108z M123.4,114.3
			c0-0.5,0.4-0.9,0.9-0.9s0.9,0.4,0.9,0.9v5.7c0,0.5-0.4,0.9-0.9,0.9s-0.9-0.4-0.9-0.9V114.3z M120.3,116.8c-0.5,0-0.8-0.6-0.7-1.3
			c0.1-0.6,0.5-1.1,0.9-1.1c0.5,0,0.8,0.6,0.7,1.3C121.2,116.4,120.7,116.8,120.3,116.8z M124.4,125.1c-0.7,0-1.3-0.6-1.3-1.5
			s0.5-1.5,1.3-1.5s1.2,0.6,1.2,1.5S125.1,125.1,124.4,125.1z M128.4,116.8c-0.5,0-0.9-0.4-0.9-1.1c-0.1-0.6,0.3-1.3,0.7-1.3
			c0.5,0,0.9,0.4,0.9,1.1S129,116.8,128.4,116.8z"/>
		<rect x="116.7" y="133.2" class="st3" width="15.3" height="7.9"/>
		<path class="st3" d="M124.4,120.3c0.2,0,0.4-0.2,0.4-0.4v-5.7c0-0.2-0.2-0.4-0.4-0.4c-0.2,0-0.4,0.2-0.4,0.4v5.7
			C124,120.2,124.2,120.3,124.4,120.3z"/>
	</g>
	<rect id="XMLID_34_" x="100" y="100" class="st1" width="50" height="50"/>
</g>
<g>
	<rect id="XMLID_33_" x="450" y="100" class="st1" width="50" height="50"/>
	<path class="st3" d="M482,114.7l-2.1,1.8l2.2,1.4l-5.8,3.5l3.3-3.5l-2.2-0.8l3.1-3.6l-5.6-5.6l-7.3,7.3v-5.1h-4.5v9.6l-9.2,9.2
		l3.2,3.2l4.4-4.4v9.3l3.4-2.2l-1.7-1.5l7.2-5.1l-4.9,5l1.6,1.5l-5.5,5.1v2.6h26.8v-1.6l-2.5-1.1l1.7-0.9l-3.6-2.7l4.5,0.9v-9.5
		l4.4,4.4l3.2-3.2L482,114.7z M478.5,134h-4.2v-7h4.2V134z M484.3,130.5l-1-0.6l0.4,1.5l-2.5-0.6l1.6,2.2l-1.8,0.2l0.8,0.9h-1.6v-7
		h4.2L484.3,130.5L484.3,130.5z"/>
</g>
<g>
	<rect id="XMLID_32_" x="150" y="100" class="st1" width="50" height="50"/>
	<g>
		<rect x="155.1" y="138.5" class="st3" width="38.3" height="0.8"/>
		<polygon class="st3" points="157.7,120.9 175.6,110.5 175.2,109.8 156.9,120.4 156.9,135.9 155.1,135.9 155.1,136.7 157.7,136.7 
					"/>
		<path class="st3" d="M160.2,120.8l-1.1,1.4v14.5h15l1.7-1.5v-21.8l-1.3-0.7L160.2,120.8z M160.6,121.5l6.1-3.4v11.5h-6.9v-7.1
			L160.6,121.5z M173.9,135.9h-14v-6H175v5.1L173.9,135.9z M175,129.5h-7.8v-11.8l7.3-4.1l0.5,0.3V129.5z"/>
		<path class="st3" d="M193,113.2v6.1h-7.3v-6.1h-0.4v6.1h-7.2v-7.7l1.2-0.7l-0.3-0.6l-1.8,0.9v24.1l1.5,1.4h13.5l1.5-1.4v-22.1
			C193.7,113.2,193,113.2,193,113.2z M193,119.8v7.6h-7.3v-7.6H193z M185.3,119.8v7.6h-7.2v-7.6H185.3z M178.1,135v-7.2h7.2v8.1
			h-6.2L178.1,135z M192,135.9h-6.2v-8.1h7.3v7.2L192,135.9z"/>
	</g>
</g>
<g>
	<rect id="XMLID_31_" x="300" y="100" class="st1" width="50" height="50"/>
	<path id="XMLID_30_" class="st3" d="M334.1,130.9l1.8-9.9l2.7,0.4c0.3,0,0.4-0.2,0.3-0.4l-9.6-10.8c-0.1-0.1-0.3-0.1-0.4-0.1
		l-12.7,7.1c-0.2,0.1-0.2,0.4,0.1,0.5l11.4,2l-8.5-1.5l-1.8,9.8l-13.1-2.4v15h40.6v-7.7L334.1,130.9z M324.6,121.4l-0.5,2.8
		l-1.8-0.3h0.2l0.5-2.8h-0.1L324.6,121.4z M321.2,120.8l1.5,0.3l-0.5,2.8l-1.5-0.3L321.2,120.8z M330,123l3.3,0.6l-1.3,7l-3.3-0.6
		L330,123z M340,137.4c-0.2,0.3-0.5,0.5-0.9,0.5c-0.1,0-0.1,0-0.2,0l-32.6-5.9c-0.5-0.1-0.9-0.6-0.8-1.3c0.1-0.5,0.6-0.9,1.2-0.8
		l30,5.5l-0.6-0.8c-0.3-0.4-0.2-1.1,0.2-1.5c0.4-0.3,1.1-0.2,1.5,0.2l2.3,2.9C340.2,136.6,340.2,137.1,340,137.4z"/>
</g>
<g>
	<path id="XMLID_29_" class="st3" d="M288.9,130.2h-4.5V120h2.9c0.3,0,0.5-0.3,0.3-0.5l-11.1-9.1c-0.1-0.1-0.3-0.1-0.4,0l-11.2,9.2
		c-0.2,0.2-0.1,0.5,0.2,0.5h11.5h-8.8v10.1H267l-6.8-7.3h-6v16.7h41.7L288.9,130.2z M274,121.9v3.1h-2.1v-3.1H274z M270.8,121.9h1
		v3.1h-1V121.9z M279.2,122.9h4.2v7.3h-4.2V122.9z M256.2,125h3.3l6.8,7.3h21.5l4.2,5.2h-35.7L256.2,125L256.2,125z"/>
	<rect x="250" y="100" class="st1" width="50" height="50"/>
</g>
<g>
	<rect id="XMLID_28_" x="350" y="100" class="st1" width="50" height="50"/>
	<path class="st3" d="M381.8,112.3l1.8-6.1c0.2-0.8-0.2-1.7-1-1.9h-0.1c-0.8-0.2-1.7,0.2-1.9,1l-2.1,7.1L381.8,112.3L381.8,112.3
		L381.8,112.3z"/>
	<g>
		<path class="st3" d="M387.3,127.3c-2-3-3.1-5-2.2-6.9c0.3-0.6,0.7-1,1-1.4c1.3-1.4,2-1.6,2-1.6v-3h-8.4h-4.5
			c-0.2,2.5-1.1,4.8-2,4.8s-0.9-2.6-1.9-2.5c-0.8,0.1-0.7,4.2-1.7,4.2c-0.9,0-0.7-3.8-1.6-4c-0.8-0.2-0.4,1.8-1.4,1.7
			c-0.6-0.1-0.9-2.5-1.1-4.2h-4v3c0,0,0.8,0.2,2,1.6c0.3,0.3,0.7,0.7,1,1.4c0.9,1.9-0.2,3.9-2.2,6.9c-1.5,2.3-3.4,5.1-3.1,8.4
			c0.5,6.2,6.4,9.2,11.1,10h8.6c4.8-0.8,10.7-3.8,11.1-10C390.7,132.4,388.8,129.6,387.3,127.3z M381.4,138.2
			c-0.5,0.4-1.1,0.9-1.1,1.7v1.6c0,0.7-0.6,1.4-1.3,1.4h-1.1c-0.4,0-0.6-0.3-0.6-0.6v-2c0-0.5-0.3-0.5-0.5-0.5
			c-0.2,0-0.5,0.1-0.5,0.5s0,1.7,0,2.1s-0.1,0.5-0.5,0.5h-0.1c0,0-0.9,0-1.4,0h-0.1c-0.4,0-0.5-0.1-0.5-0.5s0-1.7,0-2.1
			c0-0.4-0.2-0.6-0.5-0.6c-0.3,0-0.5,0-0.5,0.5v2c0,0.3-0.2,0.6-0.6,0.6h-1c-0.6,0-1.3-0.6-1.3-1.4v-1.6c0-0.7-0.6-1.2-1.1-1.7
			c-0.5-0.4-3-1.9-3-5.4c0-4.7,4.3-8.5,9.5-8.5c5.1,0,9.5,3.8,9.5,8.5C384.4,136.4,382,137.8,381.4,138.2z"/>
		<path class="st3" d="M375.3,135.9l0.6,1c0.2,0.3,0,0.7-0.4,0.7h-1.3c-0.4,0-0.6-0.4-0.4-0.7l0.6-1
			C374.7,135.5,375.1,135.5,375.3,135.9z"/>
		
			<ellipse transform="matrix(0.9534 -0.3016 0.3016 0.9534 -22.2405 120.5328)" class="st3" cx="379.2" cy="132.3" rx="2.3" ry="3"/>
		
			<ellipse transform="matrix(0.3016 -0.9534 0.9534 0.3016 132.5553 445.5112)" class="st3" cx="370.4" cy="132.3" rx="3" ry="2.3"/>
	</g>
</g>
<g>
	<rect id="XMLID_27_" x="400" y="100" class="st1" width="50" height="50"/>
	<g>
		<path class="st3" d="M444.4,128.8c-0.1-4.6-3.6-8.1-8.1-8.5c0-0.1,0-0.1,0-0.2V119l0,0c0.3-0.1,0.5-0.3,0.8-0.5
			c0.5-0.4,0.8-1,0.8-1.8c0-0.1,0-0.2,0-0.3l-0.4-3.1c-0.1-0.7-0.5-1.2-1-1.7c-0.5-0.4-1.1-0.5-1.9-0.5c-0.1,0-0.3,0-0.4,0h-0.1
			l-3-2.7c-0.1-0.5-0.2-0.9-0.5-1.4s-0.9-0.9-1.6-1l-3.1-0.5l0,0c-0.1,0-0.2,0-0.3,0c-0.7,0-1.4,0.3-1.8,0.8
			c-0.3,0.3-0.5,0.7-0.7,1.1L423,107l-3.9,1.2c-0.6-0.4-1.2-0.6-1.9-0.6c-0.4,0-0.7,0.1-1,0.2c-0.3,0.1-0.6,0.4-0.9,0.7l-1.9,2.5
			c-0.3,0.4-0.4,0.9-0.4,1.5s0.2,1.1,0.5,1.7l-0.9,2.9c-0.6,0.1-1.1,0.3-1.6,0.6c-0.5,0.4-0.9,1.1-0.9,1.9v3.1
			c0,0.8,0.4,1.5,0.9,1.9c0.3,0.3,0.8,0.5,1.2,0.6l0,0l0.1,1.1l0.1,0.1c-4.3,1-7.2,5.1-6.7,9.6l0,0v0.1c0.3,2.2,1.4,4.1,2.8,5.5
			l-1,1.5l2.4,1.8l1.1-1.6c1.4,0.6,2.9,0.8,4.6,0.7l0,0h0.1c2-0.2,3.8-1.1,5.1-2.5l-2-2.1c-0.9,0.9-2.1,1.5-3.4,1.7h-0.1
			c-3.3,0.4-6.2-2-6.7-5.2v-0.1l0,0l0,0c-0.4-3.3,2-6.2,5.3-6.7l0,0l0,0l0,0c3.3-0.4,6.2,2,6.7,5.2v0.1l2.8-0.3V134
			c-0.5-4.5-4.4-7.8-8.9-7.8V126l-0.1-1.1c0.2-0.1,0.3-0.2,0.5-0.3c0.5-0.4,0.9-1.1,0.9-1.9v-3.1c0-0.8-0.4-1.5-0.9-1.9
			c-0.1-0.1-0.3-0.2-0.5-0.3l0.6-2c0.3,0.1,0.6,0.2,1,0.2c0.4,0,0.7-0.1,1-0.2c0.3-0.1,0.6-0.4,0.9-0.7l1.9-2.5
			c0.3-0.4,0.4-0.9,0.4-1.5c0-0.2,0-0.5-0.1-0.7l2.6-0.8c0.1,0.4,0.2,0.8,0.5,1.1c0.3,0.5,0.9,0.9,1.6,1l0,0l3.1,0.5
			c0.1,0,0.2,0,0.3,0c0.7,0,1.4-0.3,1.8-0.8c0.1-0.1,0.2-0.3,0.4-0.5l1.7,1.5c-0.4,0.4-0.6,1-0.6,1.7c0,0.1,0,0.2,0,0.3l0,0l0.4,3.1
			c0.1,0.7,0.5,1.2,1,1.7c0.3,0.2,0.6,0.3,1,0.4v1c0,0.1,0,0.1,0,0.2c-4.4,0.7-7.6,4.5-7.5,9l0,0v0.1c0.2,4.9,4.2,8.8,9.1,8.6h0.1
			c4.9-0.2,8.8-4.2,8.6-9.1l0,0L444.4,128.8z M413.9,122.6c0,0.1,0,0.2-0.2,0.3c-0.2,0.1-0.4,0.2-0.7,0.2s-0.6-0.1-0.7-0.2
			c-0.2-0.1-0.2-0.2-0.2-0.3v-3.1c0-0.1,0-0.2,0.2-0.3c0.2-0.1,0.4-0.2,0.7-0.2s0.6,0.1,0.7,0.2c0.2,0.1,0.2,0.2,0.2,0.3V122.6z
			 M418.3,110.7l-1.9,2.5l-0.1,0.1c-0.1,0-0.1,0-0.3,0s-0.5-0.1-0.7-0.3c-0.3-0.2-0.5-0.6-0.5-0.8c0-0.1,0-0.2,0.1-0.2l1.9-2.5
			l0.1-0.1c0.1,0,0.1,0,0.3,0s0.5,0.1,0.7,0.3c0.3,0.2,0.5,0.6,0.5,0.8C418.3,110.6,418.3,110.7,418.3,110.7z M429.1,108.8
			c0,0.3-0.2,0.5-0.3,0.7c-0.1,0.1-0.3,0.2-0.3,0.2l0,0l-3.1-0.5l-0.1,1l0.1-1c-0.1,0-0.2,0-0.3-0.2c-0.1-0.1-0.2-0.4-0.2-0.6
			c0-0.1,0-0.1,0-0.2c0-0.3,0.2-0.5,0.3-0.7c0.1-0.1,0.3-0.2,0.3-0.2l0,0l0,0l3.1,0.5c0.1,0,0.2,0,0.2,0.2c0.1,0.1,0.2,0.4,0.2,0.6
			C429.1,108.6,429.1,108.6,429.1,108.8z M434,116.6l-0.4-3.1l0,0l0,0c0-0.1,0-0.2,0.2-0.3c0.1-0.1,0.4-0.3,0.7-0.3
			c0.1,0,0.1,0,0.2,0c0.3,0,0.5,0.1,0.6,0.2c0.1,0.1,0.2,0.2,0.2,0.3l0.4,3.1l1-0.1l-1,0.1l0,0c0,0.1,0,0.2-0.2,0.3
			c-0.1,0.1-0.4,0.3-0.7,0.3c-0.1,0-0.1,0-0.2,0c-0.3,0-0.5-0.1-0.6-0.2C434,116.8,434,116.7,434,116.6z M441.6,128.9
			c0.1,3.3-2.5,6-5.8,6.1l0,0l0,0l0,0c-3.3,0.1-6-2.5-6.1-5.8v-0.1c-0.1-3.3,2.5-6,5.8-6.1h0.1C438.6,122.9,441.4,125.5,441.6,128.9
			L441.6,128.9L441.6,128.9L441.6,128.9z"/>
	</g>
</g>
<g>
	<rect id="XMLID_26_" x="50" y="100" class="st1" width="50" height="50"/>
	<rect x="63.6" y="109.6" class="st3" width="2.8" height="30.9"/>
	<rect x="84" y="109.6" class="st3" width="2.8" height="30.9"/>
	<g>
		<rect x="74.2" y="109.6" class="st3" width="2.1" height="3"/>
		<rect x="74.2" y="117.6" class="st3" width="2.1" height="5"/>
		<rect x="74.2" y="127.6" class="st3" width="2.1" height="5"/>
		<rect x="74.2" y="137.6" class="st3" width="2.1" height="2.8"/>
	</g>
</g>
<g>
	<rect id="XMLID_25_" y="100" class="st1" width="50" height="50"/>
	<g>
		<path class="st3" d="M36.8,116.4c-0.7,0-1.5,1.1-1.8,2.7h-4c-0.6-1-1.6-1.9-2.7-2.3v-3h3.9c0.8,0,1.5-0.6,1.5-1.5v-0.2
			c0-0.8-0.6-1.5-1.5-1.5h-3.9c-0.1-0.7-0.6-1.3-1.5-1.3H26c-0.7,0-1.4,0.6-1.5,1.3h-4.1c-0.8,0-1.5,0.6-1.5,1.5v0.2
			c0,0.8,0.6,1.5,1.5,1.5h4.1v2.9c-1.3,0.4-2.3,1.3-2.9,2.4c-0.6,0-1.4,0-2.4,0c-4.9,0-8.2,3.8-8.2,8.9c0,1,0,2.1,0,2.1h5
			c0,0,0-0.9,0-1.5c0-2.3,1.9-4.2,4.3-4.2c0.6,0,1,0,1.4,0c0.9,1.6,2.6,2.7,4.7,2.7s3.8-1.1,4.7-2.8H35c0.3,1.7,1,2.8,1.8,2.8
			c1.1,0,2.1-2.4,2.1-5.4S37.9,116.4,36.8,116.4z"/>
		<path class="st3" d="M13.5,143.8c2.1,0,3.8-1.7,2.8-4c-0.9-2.3-2.8-6.5-2.8-6.5s-2,4.2-2.8,6.5C9.8,142.2,11.5,143.8,13.5,143.8z"
			/>
	</g>
</g>
<g>
	<rect id="XMLID_24_" x="200" y="100" class="st1" width="50" height="50"/>
	<g id="jTnhPa_3_">
		<g>
			<g>
				<path class="st3" d="M222.1,127.6c-4.9,0-9.8,0-14.7,0c-0.6,0-0.6,0-0.6-0.6c0-0.5,0-1,0-1.6c0-0.3,0.1-0.4,0.4-0.4
					c0.1,0,0.3,0,0.4,0c9.6,0,19.1,0,28.6,0c1.1,0,2.1-0.4,2.6-1.6c0.4-0.9,0.3-1.8-0.3-2.6c-0.7-0.8-1.6-1.1-2.7-0.8
					c-0.9,0.3-1.7,0.9-1.8,2c-0.1,0.4-0.2,0.5-0.6,0.5c-0.5,0-1,0-1.6,0s-0.5-0.1-0.5-0.6c0.2-1.7,1-2.9,2.4-3.8
					c3.2-2.1,7.4-0.1,7.9,3.6c0.4,3-2,5.8-5,5.8C231.8,127.6,227,127.6,222.1,127.6z"/>
				<path class="st3" d="M217.5,122.4c-2.5,0-5.1,0-7.6,0c-0.5,0-0.5,0-0.5-0.5s0-1,0-1.6c0-0.4,0.1-0.5,0.5-0.5c1.6,0,3.1,0,4.8,0
					c3.3,0,6.8,0,10.1,0c1.4,0,2.4-0.8,2.6-2.2c0.2-0.9-0.3-2-1.2-2.5c-0.9-0.5-2.1-0.4-2.9,0.2c-0.5,0.4-0.8,0.9-0.9,1.6
					c0,0.3-0.2,0.4-0.5,0.4c-0.5,0-1,0-1.6,0c-0.4,0-0.5-0.1-0.5-0.5c0.2-1.9,1.1-3.3,2.8-4.2c3.2-1.6,6.8,0.3,7.4,3.9
					c0.5,3-1.9,5.9-5,5.9C222.5,122.4,220,122.4,217.5,122.4z"/>
				<path class="st3" d="M224,130.1c2.9,0,5.7,0,8.6,0c2,0,3.8,1.6,3.9,3.4c0.2,2.2-1.3,4-3.3,4.3c-2.1,0.3-4.1-1.3-4.4-3.3
					c-0.1-0.5,0-0.6,0.5-0.6s1,0,1.6,0c0.3,0,0.5,0.1,0.6,0.4c0.2,0.5,0.7,0.9,1.2,0.8c0.6,0,1-0.4,1.1-1c0.2-0.7-0.4-1.5-1.1-1.5
					c-0.2,0-0.3,0-0.5,0c-5.6,0-11.4,0-17,0c-0.6,0-0.6,0-0.6-0.6c0-0.4,0-0.8,0-1.2c0-0.7,0-0.7,0.6-0.7
					C218.1,130.1,221,130.1,224,130.1z"/>
			</g>
		</g>
	</g>
</g>
</svg>
