<?xml version="1.0" encoding="utf-8"?>
<!-- Generator: Adobe Illustrator 19.0.0, SVG Export Plug-In . SVG Version: 6.00 Build 0)  -->
<svg version="1.1" id="レイヤー_1" xmlns="http://www.w3.org/2000/svg" xmlns:xlink="http://www.w3.org/1999/xlink" x="0px"
	 y="0px" viewBox="-396 274.3 48 48" style="enable-background:new -396 274.3 48 48;" xml:space="preserve">
<style type="text/css">
	.st0{fill:none;}
	.st1{fill:#EEEEEE;}
</style>
<rect id="XMLID_1_" x="-396" y="274.3" class="st0" width="48" height="48"/>
<path class="st1" d="M-358.7,303.3h-4.3v-9.8h2.8c0.3,0,0.5-0.3,0.3-0.5l-10.7-8.7c-0.1-0.1-0.3-0.1-0.4,0l-10.8,8.8
	c-0.2,0.2-0.1,0.5,0.2,0.5h2.6v9.7h-0.7l-6.5-7h-5.8v16h40L-358.7,303.3z M-368,296.3h4v7h-4V296.3z M-373,295.3v3h-3v-3H-373z
	 M-390,298.3h3.2l6.5,7h20.6l4,5H-390V298.3z"/>
</svg>
