<?xml version="1.0" encoding="utf-8"?>
<!-- Generator: Adobe Illustrator 19.0.0, SVG Export Plug-In . SVG Version: 6.00 Build 0)  -->
<svg version="1.1" id="レイヤー_1" xmlns="http://www.w3.org/2000/svg" xmlns:xlink="http://www.w3.org/1999/xlink" x="0px"
	 y="0px" viewBox="0 0 48 48" style="enable-background:new 0 0 48 48;" xml:space="preserve">
<style type="text/css">
	.st0{fill:none;}
	.st1{fill:#F39800;}
</style>
<rect id="XMLID_1_" class="st0" width="48" height="48"/>
<path id="XMLID_13_" class="st1" d="M37.3,29H33v-9.8l2.8,0c0.3,0,0.5-0.3,0.3-0.5L25.4,10c-0.1-0.1-0.3-0.1-0.4,0l-10.8,8.8
	c-0.2,0.2-0.1,0.5,0.2,0.5l11,0l-8.4,0V29h-0.7l-6.5-7H4v16h40L37.3,29z M23,21v3h-2v-3H23z M20,21h1v3h-1V21z M28,22h4v7h-4V22z
	 M6,24h3.2l6.5,7h20.6l4,5H6V24z"/>
</svg>
