<?xml version="1.0" encoding="utf-8"?>
<!-- Generator: Adobe Illustrator 19.0.0, SVG Export Plug-In . SVG Version: 6.00 Build 0)  -->
<svg version="1.1" id="レイヤー_1" xmlns="http://www.w3.org/2000/svg" xmlns:xlink="http://www.w3.org/1999/xlink" x="0px"
	 y="0px" viewBox="-396 274.3 48 48" style="enable-background:new -396 274.3 48 48;" xml:space="preserve">
<style type="text/css">
	.st0{fill:none;}
	.st1{fill:#EEEEEE;}
</style>
<rect id="XMLID_1_" x="-396" y="274.3" class="st0" width="48" height="48"/>
<g>
	<rect x="-391.1" y="311.3" class="st1" width="36.8" height="0.8"/>
	<polygon class="st1" points="-388.6,294.4 -371.4,284.4 -371.8,283.7 -389.4,293.9 -389.4,308.8 -391.1,308.8 -391.1,309.5 
		-388.6,309.5 	"/>
	<path class="st1" d="M-386.2,294.3l-1.1,1.3v13.9h14.4l1.6-1.4v-20.9l-1.2-0.7L-386.2,294.3z M-385.8,294.9l5.9-3.3v11h-6.6v-6.8
		L-385.8,294.9z M-373.1,308.8h-13.4V303h14.5v4.9L-373.1,308.8z M-372,302.6h-7.5v-11.3l7-3.9l0.5,0.3V302.6z"/>
	<path class="st1" d="M-354.7,287v5.9h-7V287h-0.4v5.9h-6.9v-7.4l1.2-0.7l-0.3-0.6l-1.7,0.9v23.1l1.4,1.3h13l1.4-1.3V287H-354.7z
		 M-354.7,293.3v7.3h-7v-7.3H-354.7z M-362.1,293.3v7.3h-6.9v-7.3H-362.1z M-369,307.9V301h6.9v7.8h-6L-369,307.9z M-355.7,308.8h-6
		V301h7v6.9L-355.7,308.8z"/>
</g>
</svg>
