<?xml version="1.0" encoding="utf-8"?>
<!-- Generator: Adobe Illustrator 19.0.0, SVG Export Plug-In . SVG Version: 6.00 Build 0)  -->
<svg version="1.1" id="レイヤー_1" xmlns="http://www.w3.org/2000/svg" xmlns:xlink="http://www.w3.org/1999/xlink" x="0px"
	 y="0px" viewBox="-396 274.3 48 48" style="enable-background:new -396 274.3 48 48;" xml:space="preserve">
<style type="text/css">
	.st0{fill:none;}
	.st1{fill:#F39800;}
</style>
<rect id="XMLID_1_" x="-396" y="274.3" class="st0" width="48" height="48"/>
<path class="st1" d="M-365.3,288.4l-2,1.7l2.1,1.3l-5.6,3.4l3.2-3.4l-2.1-0.8l3-3.5l-5.4-5.4l-7,7v-4.9h-4.3v9.2l-8.8,8.8l3.1,3.1
	l4.2-4.2v8.9l3.3-2.1l-1.6-1.4l6.9-4.9l-4.7,4.8l1.5,1.4l-5.3,4.9v2.5h25.7v-1.5l-2.4-1.1l1.6-0.9l-3.5-2.6l4.3,0.9v-9.1l4.2,4.2
	l3.1-3.1L-365.3,288.4z M-368.6,306.9h-4v-6.7h4V306.9z M-363.1,303.6l-1-0.6l0.4,1.4l-2.4-0.6l1.5,2.1l-1.7,0.2l0.8,0.9h-1.5v-6.7
	h4L-363.1,303.6L-363.1,303.6z"/>
</svg>
