<?xml version="1.0" encoding="utf-8"?>
<!-- Generator: Adobe Illustrator 19.0.0, SVG Export Plug-In . SVG Version: 6.00 Build 0)  -->
<svg version="1.1" id="レイヤー_1" xmlns="http://www.w3.org/2000/svg" xmlns:xlink="http://www.w3.org/1999/xlink" x="0px"
	 y="0px" viewBox="-396 274.3 48 48" style="enable-background:new -396 274.3 48 48;" xml:space="preserve">
<style type="text/css">
	.st0{fill:#CC0000;}
	.st1{fill:none;}
</style>
<path class="st0" d="M-364.7,305.7c0.3,0,0.6-0.3,0.6-0.6v-0.3c-0.1-0.3-0.4-0.6-0.7-0.6h-15.6c-0.3,0-0.6,0.3-0.6,0.6v0.3
	c0,0.3,0.3,0.6,0.6,0.6"/>
<path class="st0" d="M-381.8,308.3c0.4-0.8-1.4-1.9-2-2.7c-1.4-2-0.7-6.5,3-6.5v-3.8c0,0-3.1,0.1-5.2,2.5s-2.6,7.3,0.4,10
	C-383.5,309.6-382.1,309.1-381.8,308.3z"/>
<path class="st0" d="M-363.4,286c-0.4,0.8,1.4,1.9,2,2.7c1.4,2,0.7,6.5-3,6.5v3.8c0,0,3.1-0.1,5.2-2.5s2.6-7.3-0.4-10
	C-361.6,284.7-363.1,285.2-363.4,286z"/>
<path class="st1" d="M-372.6,294.3c0.5,0,0.9-0.4,0.9-0.9v-5.5c0-0.5-0.4-0.9-0.9-0.9s-0.9,0.4-0.9,0.9v5.5
	C-373.5,293.9-373.1,294.3-372.6,294.3z M-373,288c0-0.2,0.2-0.4,0.4-0.4c0.2,0,0.4,0.2,0.4,0.4v5.5c0,0.2-0.2,0.4-0.4,0.4
	c-0.2,0-0.4-0.2-0.4-0.4V288z"/>
<path class="st1" d="M-380.4,304.2c-0.3,0-0.6,0.3-0.6,0.6v0.3c0,0.3,0.3,0.6,0.6,0.6h0.4v-1.5H-380.4z"/>
<path class="st0" d="M-372.6,282c-4.1,0-7.4,4.1-7.4,9.2v12.5h14.7v-12.5C-365.2,286.1-368.5,282-372.6,282z M-373.5,288
	c0-0.5,0.4-0.9,0.9-0.9s0.9,0.4,0.9,0.9v5.5c0,0.5-0.4,0.9-0.9,0.9s-0.9-0.4-0.9-0.9V288z M-376.5,290.4c-0.5,0-0.8-0.6-0.7-1.2
	c0.1-0.6,0.5-1.1,0.9-1.1c0.5,0,0.8,0.6,0.7,1.2C-375.6,290-376.1,290.4-376.5,290.4z M-372.6,298.4c-0.7,0-1.2-0.6-1.2-1.4
	s0.5-1.4,1.2-1.4s1.2,0.6,1.2,1.4S-371.9,298.4-372.6,298.4z M-368.7,290.4c-0.5,0-0.9-0.4-0.9-1.1c-0.1-0.6,0.3-1.2,0.7-1.2
	c0.5,0,0.9,0.4,0.9,1.1S-368.2,290.4-368.7,290.4z"/>
<rect x="-380" y="306.2" class="st0" width="14.7" height="7.6"/>
<path class="st0" d="M-372.6,293.8c0.2,0,0.4-0.2,0.4-0.4v-5.5c0-0.2-0.2-0.4-0.4-0.4c-0.2,0-0.4,0.2-0.4,0.4v5.5
	C-373,293.7-372.8,293.8-372.6,293.8z"/>
<rect id="XMLID_1_" x="-396" y="274.3" class="st1" width="48" height="48"/>
</svg>
