<?xml version="1.0" encoding="utf-8"?>
<!-- Generator: Adobe Illustrator 19.0.0, SVG Export Plug-In . SVG Version: 6.00 Build 0)  -->
<svg version="1.1" id="レイヤー_1" xmlns="http://www.w3.org/2000/svg" xmlns:xlink="http://www.w3.org/1999/xlink" x="0px"
	 y="0px" viewBox="-396 274.3 48 48" style="enable-background:new -396 274.3 48 48;" xml:space="preserve">
<style type="text/css">
	.st0{fill:none;}
	.st1{fill:#EEEEEE;}
</style>
<rect id="XMLID_1_" x="-396" y="274.3" class="st0" width="48" height="48"/>
<path id="XMLID_13_" class="st1" d="M-363.3,304l1.7-9.5l2.6,0.4c0.3,0,0.4-0.2,0.3-0.4l-9.2-10.4c-0.1-0.1-0.3-0.1-0.4-0.1
	l-12.2,6.8c-0.2,0.1-0.2,0.4,0.1,0.5l10.9,1.9l-8.2-1.4l-1.7,9.4l-12.6-2.3v14.4h39v-7.4L-363.3,304z M-372.4,294.8l-0.5,2.7
	l-1.7-0.3h0.2l0.5-2.7h-0.1L-372.4,294.8z M-375.6,294.3l1.4,0.3l-0.5,2.7l-1.4-0.3L-375.6,294.3z M-367.2,296.4l3.2,0.6l-1.2,6.7
	l-3.2-0.6L-367.2,296.4z M-357.6,310.2c-0.2,0.3-0.5,0.5-0.9,0.5c-0.1,0-0.1,0-0.2,0L-390,305c-0.5-0.1-0.9-0.6-0.8-1.2
	c0.1-0.5,0.6-0.9,1.2-0.8l28.8,5.3l-0.6-0.8c-0.3-0.4-0.2-1.1,0.2-1.4c0.4-0.3,1.1-0.2,1.4,0.2l2.2,2.8
	C-357.4,309.4-357.4,309.9-357.6,310.2z"/>
</svg>
