<?xml version="1.0" encoding="utf-8"?>
<!-- Generator: Adobe Illustrator 19.0.0, SVG Export Plug-In . SVG Version: 6.00 Build 0)  -->
<svg version="1.1" id="レイヤー_1" xmlns="http://www.w3.org/2000/svg" xmlns:xlink="http://www.w3.org/1999/xlink" x="0px"
	 y="0px" viewBox="-396 274.3 48 48" style="enable-background:new -396 274.3 48 48;" xml:space="preserve">
<style type="text/css">
	.st0{fill:none;}
	.st1{fill:#F39800;}
</style>
<rect id="XMLID_1_" x="-396" y="274.3" class="st0" width="48" height="48"/>
<path class="st1" d="M-365.5,286.1l1.7-5.9c0.2-0.8-0.2-1.6-1-1.8h-0.1c-0.8-0.2-1.6,0.2-1.8,1l-2,6.8h3.2V286.1z"/>
<g>
	<path class="st1" d="M-360.2,300.5c-1.9-2.9-3-4.8-2.1-6.6c0.3-0.6,0.7-1,1-1.3c1.2-1.3,1.9-1.5,1.9-1.5v-2.9h-8.1h-4.3
		c-0.2,2.4-1.1,4.6-1.9,4.6c-0.9,0-0.9-2.5-1.8-2.4c-0.8,0.1-0.7,4-1.6,4s-0.7-3.6-1.5-3.8c-0.8-0.2-0.4,1.7-1.3,1.6
		c-0.6-0.1-0.9-2.4-1.1-4h-3.8v2.9c0,0,0.8,0.2,1.9,1.5c0.3,0.3,0.7,0.7,1,1.3c0.9,1.8-0.2,3.7-2.1,6.6c-1.4,2.2-3.3,4.9-3,8.1
		c0.5,6,6.1,8.8,10.7,9.6h8.3c4.6-0.8,10.3-3.6,10.7-9.6C-356.9,305.4-358.8,302.7-360.2,300.5z M-365.9,311
		c-0.5,0.4-1.1,0.9-1.1,1.6v1.5c0,0.7-0.6,1.3-1.2,1.3h-1.1c-0.4,0-0.6-0.3-0.6-0.6v-1.9c0-0.5-0.3-0.5-0.5-0.5
		c-0.2,0-0.5,0.1-0.5,0.5s0,1.6,0,2s-0.1,0.5-0.5,0.5h-0.1c0,0-0.9,0-1.3,0h-0.1c-0.4,0-0.5-0.1-0.5-0.5s0-1.6,0-2s-0.2-0.6-0.5-0.6
		c-0.3,0-0.5,0-0.5,0.5v1.9c0,0.3-0.2,0.6-0.6,0.6h-1c-0.6,0-1.2-0.6-1.2-1.3v-1.5c0-0.7-0.6-1.2-1.1-1.6s-2.9-1.8-2.9-5.2
		c0-4.5,4.1-8.2,9.1-8.2c4.9,0,9.1,3.6,9.1,8.2C-363,309.2-365.3,310.6-365.9,311z"/>
	<path class="st1" d="M-371.7,308.8l0.6,1c0.2,0.3,0,0.7-0.4,0.7h-1.2c-0.4,0-0.6-0.4-0.4-0.7l0.6-1
		C-372.3,308.4-371.9,308.4-371.7,308.8z"/>
	
		<ellipse transform="matrix(-0.3016 -0.9534 0.9534 -0.3016 -770.0519 46.491)" class="st1" cx="-368" cy="305.3" rx="2.9" ry="2.2"/>
	
		<ellipse transform="matrix(-0.3016 0.9534 -0.9534 -0.3016 -198.8258 756.1931)" class="st1" cx="-376.4" cy="305.3" rx="2.9" ry="2.2"/>
</g>
</svg>
