<?xml version="1.0" encoding="utf-8"?>
<!-- Generator: Adobe Illustrator 19.0.0, SVG Export Plug-In . SVG Version: 6.00 Build 0)  -->
<svg version="1.1" id="レイヤー_1" xmlns="http://www.w3.org/2000/svg" xmlns:xlink="http://www.w3.org/1999/xlink" x="0px"
	 y="0px" width="48px" height="48px" viewBox="-7 9 48 48" style="enable-background:new -7 9 48 48;" xml:space="preserve">
<style type="text/css">
	.st0{fill:none;}
	.st1{fill:#CC0000;}
</style>
<rect id="XMLID_1_" x="-7" y="9" class="st0" width="48" height="48"/>
<g>
	<path class="st1" d="M35.6,36.6c-0.1-4.4-3.5-7.8-7.8-8.2c0-0.1,0-0.1,0-0.2v-1.1l0,0c0.3-0.1,0.5-0.3,0.8-0.5
		c0.5-0.4,0.8-1,0.8-1.7c0-0.1,0-0.2,0-0.3l-0.4-3c-0.1-0.7-0.5-1.2-1-1.6s-1.1-0.5-1.8-0.5c-0.1,0-0.3,0-0.4,0h-0.1l-2.9-2.6
		c-0.1-0.5-0.2-0.9-0.5-1.3c-0.3-0.5-0.9-0.9-1.5-1l-3-0.5l0,0c-0.1,0-0.2,0-0.3,0c-0.7,0-1.3,0.3-1.7,0.8c-0.3,0.3-0.5,0.7-0.7,1.1
		L15,15.6l-3.7,1.2c-0.6-0.4-1.2-0.6-1.8-0.6c-0.4,0-0.7,0.1-1,0.2s-0.6,0.4-0.9,0.7l-1.8,2.4c-0.3,0.4-0.4,0.9-0.4,1.4
		c0,0.6,0.2,1.1,0.5,1.6L5,25.3c-0.6,0.1-1.1,0.3-1.5,0.6C3,26.3,2.6,27,2.6,27.7v3c0,0.8,0.4,1.4,0.9,1.8c0.3,0.3,0.8,0.5,1.2,0.6
		l0,0l0.1,1.1l0.1,0.1c-4.1,1-6.9,4.9-6.4,9.2l0,0v0.1c0.3,2.1,1.3,3.9,2.7,5.3l-1,1.4L2.5,52l1.1-1.5c1.3,0.6,2.8,0.8,4.4,0.7l0,0
		h0.1c1.9-0.2,3.6-1.1,4.9-2.4l-1.9-2c-0.9,0.9-2,1.4-3.3,1.6H7.7c-3.2,0.4-6-1.9-6.4-5v-0.1l0,0l0,0c-0.4-3.2,1.9-6,5.1-6.4l0,0
		l0,0l0,0c3.2-0.4,6,1.9,6.4,5V42l2.7-0.3v-0.1c-0.5-4.3-4.2-7.5-8.5-7.5V34l-0.1-1.1c0.2-0.1,0.3-0.2,0.5-0.3
		c0.5-0.4,0.9-1.1,0.9-1.8v-3c0-0.8-0.4-1.4-0.9-1.8c-0.1-0.1-0.3-0.2-0.5-0.3l0.6-1.9c0.3,0.1,0.6,0.2,1,0.2s0.7-0.1,1-0.2
		s0.6-0.4,0.9-0.7l1.8-2.4c0.3-0.4,0.4-0.9,0.4-1.4c0-0.2,0-0.5-0.1-0.7l2.5-0.8c0.1,0.4,0.2,0.8,0.5,1.1c0.3,0.5,0.9,0.9,1.5,1l0,0
		l3,0.5c0.1,0,0.2,0,0.3,0c0.7,0,1.3-0.3,1.7-0.8c0.1-0.1,0.2-0.3,0.4-0.5l1.6,1.4c-0.4,0.4-0.6,1-0.6,1.6c0,0.1,0,0.2,0,0.3l0,0
		l0.4,3c0.1,0.7,0.5,1.2,1,1.6c0.3,0.2,0.6,0.3,1,0.4v1c0,0.1,0,0.1,0,0.2c-4.2,0.7-7.3,4.3-7.2,8.6l0,0v0.1c0.2,4.7,4,8.4,8.7,8.3
		h0.1c4.7-0.2,8.4-4,8.3-8.7l0,0L35.6,36.6z M6.3,30.7c0,0.1,0,0.2-0.2,0.3c-0.2,0.1-0.4,0.2-0.7,0.2c-0.3,0-0.6-0.1-0.7-0.2
		c-0.2-0.1-0.2-0.2-0.2-0.3v-3c0-0.1,0-0.2,0.2-0.3c0.2-0.1,0.4-0.2,0.7-0.2c0.3,0,0.6,0.1,0.7,0.2c0.2,0.1,0.2,0.2,0.2,0.3V30.7z
		 M10.6,19.3l-1.8,2.4l-0.1,0.1c-0.1,0-0.1,0-0.3,0s-0.5-0.1-0.7-0.3c-0.3-0.2-0.5-0.6-0.5-0.8c0-0.1,0-0.2,0.1-0.2l1.8-2.4L9.2,18
		c0.1,0,0.1,0,0.3,0s0.5,0.1,0.7,0.3c0.3,0.2,0.5,0.6,0.5,0.8C10.6,19.2,10.6,19.3,10.6,19.3z M20.9,17.4c0,0.3-0.2,0.5-0.3,0.7
		c-0.1,0.1-0.3,0.2-0.3,0.2l0,0l-3-0.5l-0.1,1l0.1-1c-0.1,0-0.2,0-0.3-0.2c-0.1-0.1-0.2-0.4-0.2-0.6c0-0.1,0-0.1,0-0.2
		c0-0.3,0.2-0.5,0.3-0.7c0.1-0.1,0.3-0.2,0.3-0.2l0,0l0,0l3,0.5c0.1,0,0.2,0,0.2,0.2c0.1,0.1,0.2,0.4,0.2,0.6
		C20.9,17.3,20.9,17.3,20.9,17.4z M25.6,24.9l-0.4-3l0,0l0,0c0-0.1,0-0.2,0.2-0.3c0.1-0.1,0.4-0.3,0.7-0.3c0.1,0,0.1,0,0.2,0
		c0.3,0,0.5,0.1,0.6,0.2s0.2,0.2,0.2,0.3l0.4,3l1-0.1l-1,0.1l0,0c0,0.1,0,0.2-0.2,0.3c-0.1,0.1-0.4,0.3-0.7,0.3c-0.1,0-0.1,0-0.2,0
		c-0.3,0-0.5-0.1-0.6-0.2C25.6,25.1,25.6,25,25.6,24.9z M32.9,36.7c0.1,3.2-2.4,5.8-5.6,5.9l0,0l0,0l0,0c-3.2,0.1-5.8-2.4-5.9-5.6
		v-0.1c-0.1-3.2,2.4-5.8,5.6-5.9h0.1C30.1,31,32.7,33.5,32.9,36.7L32.9,36.7L32.9,36.7L32.9,36.7z"/>
</g>
</svg>
