<?xml version="1.0" encoding="utf-8"?>
<!-- Generator: Adobe Illustrator 19.0.0, SVG Export Plug-In . SVG Version: 6.00 Build 0)  -->
<svg version="1.1" id="レイヤー_1" xmlns="http://www.w3.org/2000/svg" xmlns:xlink="http://www.w3.org/1999/xlink" x="0px"
	 y="0px" viewBox="-396 274.3 48 48" style="enable-background:new -396 274.3 48 48;" xml:space="preserve">
<style type="text/css">
	.st0{fill:none;}
	.st1{fill:#EEEEEE;}
</style>
<rect id="XMLID_1_" x="-396" y="274.3" class="st0" width="48" height="48"/>
<g>
	<path class="st1" d="M-360.7,290c-0.7,0-1.4,1.1-1.7,2.6h-3.8c-0.6-1-1.5-1.8-2.6-2.2v-2.9h3.7c0.8,0,1.4-0.6,1.4-1.4v-0.2
		c0-0.8-0.6-1.4-1.4-1.4h-3.7c-0.1-0.7-0.6-1.2-1.4-1.2h-0.8c-0.7,0-1.3,0.6-1.4,1.2h-3.9c-0.8,0-1.4,0.6-1.4,1.4v0.2
		c0,0.8,0.6,1.4,1.4,1.4h3.9v2.8c-1.2,0.4-2.2,1.2-2.8,2.3c-0.6,0-1.3,0-2.3,0c-4.7,0-7.9,3.6-7.9,8.5c0,1,0,2,0,2h4.8
		c0,0,0-0.9,0-1.4c0-2.2,1.8-4,4.1-4c0.6,0,1,0,1.3,0c0.9,1.5,2.5,2.6,4.5,2.6s3.6-1.1,4.5-2.7h3.7c0.3,1.6,1,2.7,1.7,2.7
		c1.1,0,2-2.3,2-5.2S-359.6,290-360.7,290z"/>
	<path class="st1" d="M-383,316.3c2,0,3.6-1.6,2.7-3.8c-0.9-2.2-2.7-6.2-2.7-6.2s-1.9,4-2.7,6.2C-386.6,314.8-385,316.3-383,316.3z"
		/>
</g>
</svg>
