<?xml version="1.0" encoding="utf-8"?>
<!-- Generator: Adobe Illustrator 19.0.0, SVG Export Plug-In . SVG Version: 6.00 Build 0)  -->
<svg version="1.1" id="レイヤー_1" xmlns="http://www.w3.org/2000/svg" xmlns:xlink="http://www.w3.org/1999/xlink" x="0px"
	 y="0px" viewBox="-396 274.3 48 48" style="enable-background:new -396 274.3 48 48;" xml:space="preserve">
<style type="text/css">
	.st0{fill:none;}
	.st1{fill:#CC0000;}
</style>
<rect id="XMLID_1_" x="-396" y="274.3" class="st0" width="48" height="48"/>
<g id="jTnhPa_2_">
	<g>
		<g>
			<path class="st1" d="M-374.8,300.8c-4.7,0-9.4,0-14.1,0c-0.6,0-0.6,0-0.6-0.6c0-0.5,0-1,0-1.5c0-0.3,0.1-0.4,0.4-0.4
				c0.1,0,0.3,0,0.4,0c9.2,0,18.3,0,27.5,0c1.1,0,2-0.4,2.5-1.5c0.4-0.9,0.3-1.7-0.3-2.5c-0.7-0.8-1.5-1.1-2.6-0.8
				c-0.9,0.3-1.6,0.9-1.7,1.9c-0.1,0.4-0.2,0.5-0.6,0.5c-0.5,0-1,0-1.5,0s-0.5-0.1-0.5-0.6c0.2-1.6,1-2.8,2.3-3.6
				c3.1-2,7.1-0.1,7.6,3.5c0.4,2.9-1.9,5.6-4.8,5.6C-365.5,300.8-370.1,300.8-374.8,300.8z"/>
			<path class="st1" d="M-379.2,295.8c-2.4,0-4.9,0-7.3,0c-0.5,0-0.5,0-0.5-0.5s0-1,0-1.5c0-0.4,0.1-0.5,0.5-0.5c1.5,0,3,0,4.6,0
				c3.2,0,6.5,0,9.7,0c1.3,0,2.3-0.8,2.5-2.1c0.2-0.9-0.3-1.9-1.2-2.4s-2-0.4-2.8,0.2c-0.5,0.4-0.8,0.9-0.9,1.5
				c0,0.3-0.2,0.4-0.5,0.4c-0.5,0-1,0-1.5,0c-0.4,0-0.5-0.1-0.5-0.5c0.2-1.8,1.1-3.2,2.7-4c3.1-1.5,6.5,0.3,7.1,3.7
				c0.5,2.9-1.8,5.7-4.8,5.7C-374.4,295.8-376.8,295.8-379.2,295.8z"/>
			<path class="st1" d="M-373,303.2c2.8,0,5.5,0,8.3,0c1.9,0,3.6,1.5,3.7,3.3c0.2,2.1-1.2,3.8-3.2,4.1c-2,0.3-3.9-1.2-4.2-3.2
				c-0.1-0.5,0-0.6,0.5-0.6s1,0,1.5,0c0.3,0,0.5,0.1,0.6,0.4c0.2,0.5,0.7,0.9,1.2,0.8c0.6,0,1-0.4,1.1-1c0.2-0.7-0.4-1.4-1.1-1.4
				c-0.2,0-0.3,0-0.5,0c-5.4,0-10.9,0-16.3,0c-0.6,0-0.6,0-0.6-0.6c0-0.4,0-0.8,0-1.2c0-0.7,0-0.7,0.6-0.7
				C-378.6,303.2-375.8,303.2-373,303.2z"/>
		</g>
	</g>
</g>
</svg>
